<?xml version="1.0" encoding="UTF-8" standalone="no"?>
<!DOCTYPE svg PUBLIC "-//W3C//DTD SVG 1.1//EN"
 "http://www.w3.org/Graphics/SVG/1.1/DTD/svg11.dtd">
<!-- Generated by graphviz version 2.42.4 (0)
 -->
<!-- Title: G Pages: 1 -->
<svg width="1355pt" height="225pt"
 viewBox="0.00 0.00 1355.00 225.00" xmlns="http://www.w3.org/2000/svg" xmlns:xlink="http://www.w3.org/1999/xlink">
<g id="graph0" class="graph" transform="scale(1 1) rotate(0) translate(4 221)">
<title>G</title>
<!-- Dev -->
<g id="node1" class="node">
<title>Dev</title>
<path fill="#e8f1ff" stroke="#2f3a4a" d="M87,-158C87,-158 12,-158 12,-158 6,-158 0,-152 0,-146 0,-146 0,-134 0,-134 0,-128 6,-122 12,-122 12,-122 87,-122 87,-122 93,-122 99,-128 99,-134 99,-134 99,-146 99,-146 99,-152 93,-158 87,-158"/>
<text text-anchor="middle" x="49.5" y="-143.2" font-family="Helvetica,sans-Serif" font-size="11.00">Desenvolvedor</text>
<text text-anchor="middle" x="49.5" y="-131.2" font-family="Helvetica,sans-Serif" font-size="11.00">do jogo</text>
</g>
<!-- Editor -->
<g id="node2" class="node">
<title>Editor</title>
<path fill="#eaf7ea" stroke="#2f3a4a" d="M249,-158C249,-158 152,-158 152,-158 146,-158 140,-152 140,-146 140,-146 140,-134 140,-134 140,-128 146,-122 152,-122 152,-122 249,-122 249,-122 255,-122 261,-128 261,-134 261,-134 261,-146 261,-146 261,-152 255,-158 249,-158"/>
<text text-anchor="middle" x="200.5" y="-143.2" font-family="Helvetica,sans-Serif" font-size="11.00">MomoRogue.Editor</text>
<text text-anchor="middle" x="200.5" y="-131.2" font-family="Helvetica,sans-Serif" font-size="11.00">(Avalonia)</text>
</g>
<!-- Dev&#45;&gt;Editor -->
<g id="edge1" class="edge">
<title>Dev&#45;&gt;Editor</title>
<path fill="none" stroke="#45556a" d="M99.29,-140C109.64,-140 120.74,-140 131.65,-140"/>
<polygon fill="#45556a" stroke="#45556a" points="131.94,-142.8 139.94,-140 131.94,-137.2 131.94,-142.8"/>
</g>
<!-- Project -->
<g id="node3" class="node">
<title>Project</title>
<path fill="#fff7e6" stroke="#2f3a4a" d="M411.5,-217C411.5,-217 329.5,-217 329.5,-217 323.5,-217 317.5,-211 317.5,-205 317.5,-205 317.5,-193 317.5,-193 317.5,-187 323.5,-181 329.5,-181 329.5,-181 411.5,-181 411.5,-181 417.5,-181 423.5,-187 423.5,-193 423.5,-193 423.5,-205 423.5,-205 423.5,-211 417.5,-217 411.5,-217"/>
<text text-anchor="middle" x="370.5" y="-196.2" font-family="Helvetica,sans-Serif" font-size="11.00">Projeto .mrgproj</text>
</g>
<!-- Editor&#45;&gt;Project -->
<g id="edge2" class="edge">
<title>Editor&#45;&gt;Project</title>
<path fill="none" stroke="#45556a" d="M252.82,-158.02C271.05,-164.43 291.72,-171.68 310.54,-178.29"/>
<polygon fill="#45556a" stroke="#45556a" points="309.73,-180.98 318.21,-180.99 311.59,-175.69 309.73,-180.98"/>
</g>
<!-- Runtime -->
<g id="node4" class="node">
<title>Runtime</title>
<path fill="#eaf7ea" stroke="#2f3a4a" d="M818,-158C818,-158 708,-158 708,-158 702,-158 696,-152 696,-146 696,-146 696,-134 696,-134 696,-128 702,-122 708,-122 708,-122 818,-122 818,-122 824,-122 830,-128 830,-134 830,-134 830,-146 830,-146 830,-152 824,-158 818,-158"/>
<text text-anchor="middle" x="763" y="-137.2" font-family="Helvetica,sans-Serif" font-size="11.00">MomoRogue.Runtime</text>
</g>
<!-- Editor&#45;&gt;Runtime -->
<g id="edge3" class="edge">
<title>Editor&#45;&gt;Runtime</title>
<path fill="none" stroke="#45556a" d="M261.22,-140C364.28,-140 575.25,-140 687.65,-140"/>
<polygon fill="#45556a" stroke="#45556a" points="687.9,-142.8 695.9,-140 687.9,-137.2 687.9,-142.8"/>
</g>
<!-- Build -->
<g id="node5" class="node">
<title>Build</title>
<path fill="#eaf7ea" stroke="#2f3a4a" d="M427,-99C427,-99 314,-99 314,-99 308,-99 302,-93 302,-87 302,-87 302,-75 302,-75 302,-69 308,-63 314,-63 314,-63 427,-63 427,-63 433,-63 439,-69 439,-75 439,-75 439,-87 439,-87 439,-93 433,-99 427,-99"/>
<text text-anchor="middle" x="370.5" y="-78.2" font-family="Helvetica,sans-Serif" font-size="11.00">MomoRogue.BuildTool</text>
</g>
<!-- Editor&#45;&gt;Build -->
<g id="edge4" class="edge">
<title>Editor&#45;&gt;Build</title>
<path fill="none" stroke="#45556a" d="M252.82,-121.98C271.05,-115.57 291.72,-108.32 310.54,-101.71"/>
<polygon fill="#45556a" stroke="#45556a" points="311.59,-104.31 318.21,-99.01 309.73,-99.02 311.59,-104.31"/>
</g>
<!-- Assets -->
<g id="node12" class="node">
<title>Assets</title>
<path fill="#fff7e6" stroke="#2f3a4a" d="M608,-217C608,-217 492,-217 492,-217 486,-217 480,-211 480,-205 480,-205 480,-193 480,-193 480,-187 486,-181 492,-181 492,-181 608,-181 608,-181 614,-181 620,-187 620,-193 620,-193 620,-205 620,-205 620,-211 614,-217 608,-217"/>
<text text-anchor="middle" x="550" y="-202.2" font-family="Helvetica,sans-Serif" font-size="11.00">Assets / Data / Scripts</text>
<text text-anchor="middle" x="550" y="-190.2" font-family="Helvetica,sans-Serif" font-size="11.00">VisualScripts</text>
</g>
<!-- Project&#45;&gt;Assets -->
<g id="edge5" class="edge">
<title>Project&#45;&gt;Assets</title>
<path fill="none" stroke="#45556a" d="M423.8,-199C438.77,-199 455.43,-199 471.58,-199"/>
<polygon fill="#45556a" stroke="#45556a" points="471.96,-201.8 479.96,-199 471.96,-196.2 471.96,-201.8"/>
</g>
<!-- Engine -->
<g id="node8" class="node">
<title>Engine</title>
<path fill="#eaf7ea" stroke="#2f3a4a" d="M997.5,-190C997.5,-190 896.5,-190 896.5,-190 890.5,-190 884.5,-184 884.5,-178 884.5,-178 884.5,-166 884.5,-166 884.5,-160 890.5,-154 896.5,-154 896.5,-154 997.5,-154 997.5,-154 1003.5,-154 1009.5,-160 1009.5,-166 1009.5,-166 1009.5,-178 1009.5,-178 1009.5,-184 1003.5,-190 997.5,-190"/>
<text text-anchor="middle" x="947" y="-175.2" font-family="Helvetica,sans-Serif" font-size="11.00">MomoRogue.Engine</text>
<text text-anchor="middle" x="947" y="-163.2" font-family="Helvetica,sans-Serif" font-size="11.00">(regras puras)</text>
</g>
<!-- Runtime&#45;&gt;Engine -->
<g id="edge10" class="edge">
<title>Runtime&#45;&gt;Engine</title>
<path fill="none" stroke="#45556a" d="M830.22,-151.64C845.14,-154.27 861.03,-157.06 876.09,-159.71"/>
<polygon fill="#45556a" stroke="#45556a" points="876.01,-162.54 884.37,-161.16 876.97,-157.02 876.01,-162.54"/>
</g>
<!-- Adapter -->
<g id="node9" class="node">
<title>Adapter</title>
<path fill="#eaf7ea" stroke="#2f3a4a" d="M1011,-127C1011,-127 883,-127 883,-127 877,-127 871,-121 871,-115 871,-115 871,-103 871,-103 871,-97 877,-91 883,-91 883,-91 1011,-91 1011,-91 1017,-91 1023,-97 1023,-103 1023,-103 1023,-115 1023,-115 1023,-121 1017,-127 1011,-127"/>
<text text-anchor="middle" x="947" y="-112.2" font-family="Helvetica,sans-Serif" font-size="11.00">MomoRogue.SadConsole</text>
<text text-anchor="middle" x="947" y="-100.2" font-family="Helvetica,sans-Serif" font-size="11.00">(adaptador)</text>
</g>
<!-- Runtime&#45;&gt;Adapter -->
<g id="edge11" class="edge">
<title>Runtime&#45;&gt;Adapter</title>
<path fill="none" stroke="#45556a" d="M830.22,-128.72C840.85,-126.91 851.97,-125.02 862.94,-123.15"/>
<polygon fill="#45556a" stroke="#45556a" points="863.47,-125.9 870.89,-121.79 862.53,-120.38 863.47,-125.9"/>
</g>
<!-- Dotnet -->
<g id="node6" class="node">
<title>Dotnet</title>
<path fill="#fdefef" stroke="#2f3a4a" d="M585.5,-99C585.5,-99 514.5,-99 514.5,-99 508.5,-99 502.5,-93 502.5,-87 502.5,-87 502.5,-75 502.5,-75 502.5,-69 508.5,-63 514.5,-63 514.5,-63 585.5,-63 585.5,-63 591.5,-63 597.5,-69 597.5,-75 597.5,-75 597.5,-87 597.5,-87 597.5,-93 591.5,-99 585.5,-99"/>
<text text-anchor="middle" x="550" y="-78.2" font-family="Helvetica,sans-Serif" font-size="11.00">dotnet publish</text>
</g>
<!-- Build&#45;&gt;Dotnet -->
<g id="edge7" class="edge">
<title>Build&#45;&gt;Dotnet</title>
<path fill="none" stroke="#45556a" d="M439.11,-81C457.21,-81 476.56,-81 493.9,-81"/>
<polygon fill="#45556a" stroke="#45556a" points="494.23,-83.8 502.23,-81 494.23,-78.2 494.23,-83.8"/>
</g>
<!-- Installer -->
<g id="node7" class="node">
<title>Installer</title>
<path fill="#fdefef" stroke="#2f3a4a" d="M590,-36C590,-36 510,-36 510,-36 504,-36 498,-30 498,-24 498,-24 498,-12 498,-12 498,-6 504,0 510,0 510,0 590,0 590,0 596,0 602,-6 602,-12 602,-12 602,-24 602,-24 602,-30 596,-36 590,-36"/>
<text text-anchor="middle" x="550" y="-15.2" font-family="Helvetica,sans-Serif" font-size="11.00">WiX / Instalador</text>
</g>
<!-- Build&#45;&gt;Installer -->
<g id="edge9" class="edge">
<title>Build&#45;&gt;Installer</title>
<path fill="none" stroke="#45556a" d="M422.36,-62.95C443.62,-55.4 468.46,-46.59 490.47,-38.77"/>
<polygon fill="#45556a" stroke="#45556a" points="491.53,-41.37 498.13,-36.06 489.65,-36.09 491.53,-41.37"/>
</g>
<!-- Dotnet&#45;&gt;Runtime -->
<g id="edge8" class="edge">
<title>Dotnet&#45;&gt;Runtime</title>
<path fill="none" stroke="#45556a" stroke-dasharray="5,2" d="M597.66,-90C621.31,-94.93 650.38,-101.54 676,-109 686.2,-111.97 696.95,-115.5 707.26,-119.11"/>
<polygon fill="#45556a" stroke="#45556a" points="706.56,-121.83 715.04,-121.87 708.43,-116.55 706.56,-121.83"/>
<text text-anchor="middle" x="658" y="-112" font-family="Helvetica,sans-Serif" font-size="10.00">publica</text>
</g>
<!-- Sad -->
<g id="node10" class="node">
<title>Sad</title>
<path fill="#f3e8ff" stroke="#2f3a4a" d="M1132,-127C1132,-127 1076,-127 1076,-127 1070,-127 1064,-121 1064,-115 1064,-115 1064,-103 1064,-103 1064,-97 1070,-91 1076,-91 1076,-91 1132,-91 1132,-91 1138,-91 1144,-97 1144,-103 1144,-103 1144,-115 1144,-115 1144,-121 1138,-127 1132,-127"/>
<text text-anchor="middle" x="1104" y="-106.2" font-family="Helvetica,sans-Serif" font-size="11.00">SadConsole</text>
</g>
<!-- Adapter&#45;&gt;Sad -->
<g id="edge12" class="edge">
<title>Adapter&#45;&gt;Sad</title>
<path fill="none" stroke="#45556a" d="M1023.23,-109C1034.31,-109 1045.45,-109 1055.74,-109"/>
<polygon fill="#45556a" stroke="#45556a" points="1055.8,-111.8 1063.8,-109 1055.8,-106.2 1055.8,-111.8"/>
</g>
<!-- Host -->
<g id="node11" class="node">
<title>Host</title>
<path fill="#f3e8ff" stroke="#2f3a4a" d="M1335,-127C1335,-127 1197,-127 1197,-127 1191,-127 1185,-121 1185,-115 1185,-115 1185,-103 1185,-103 1185,-97 1191,-91 1197,-91 1197,-91 1335,-91 1335,-91 1341,-91 1347,-97 1347,-103 1347,-103 1347,-115 1347,-115 1347,-121 1341,-127 1335,-127"/>
<text text-anchor="middle" x="1266" y="-106.2" font-family="Helvetica,sans-Serif" font-size="11.00">MonoGame / janela / input</text>
</g>
<!-- Sad&#45;&gt;Host -->
<g id="edge13" class="edge">
<title>Sad&#45;&gt;Host</title>
<path fill="none" stroke="#45556a" d="M1144.14,-109C1154.12,-109 1165.25,-109 1176.61,-109"/>
<polygon fill="#45556a" stroke="#45556a" points="1176.91,-111.8 1184.91,-109 1176.91,-106.2 1176.91,-111.8"/>
</g>
<!-- Assets&#45;&gt;Runtime -->
<g id="edge6" class="edge">
<title>Assets&#45;&gt;Runtime</title>
<path fill="none" stroke="#45556a" d="M615.45,-180.98C638.97,-174.4 665.7,-166.93 689.84,-160.18"/>
<polygon fill="#45556a" stroke="#45556a" points="690.63,-162.86 697.58,-158.01 689.12,-157.47 690.63,-162.86"/>
</g>
</g>
</svg>
