<?xml version="1.0" encoding="UTF-8" standalone="no"?>
<!DOCTYPE svg PUBLIC "-//W3C//DTD SVG 1.1//EN"
 "http://www.w3.org/Graphics/SVG/1.1/DTD/svg11.dtd">
<!-- Generated by graphviz version 2.42.4 (0)
 -->
<!-- Title: G Pages: 1 -->
<svg width="1047pt" height="417pt"
 viewBox="0.00 0.00 1047.00 417.00" xmlns="http://www.w3.org/2000/svg" xmlns:xlink="http://www.w3.org/1999/xlink">
<g id="graph0" class="graph" transform="scale(1 1) rotate(0) translate(4 413)">
<title>G</title>
<g id="clust1" class="cluster">
<title>cluster_core</title>
<polygon fill="transparent" stroke="#a9bdd6" points="672,-91 672,-166 1021,-166 1021,-91 672,-91"/>
<text text-anchor="middle" x="846.5" y="-150.8" font-family="Helvetica,sans-Serif" font-size="14.00">Core</text>
</g>
<g id="clust2" class="cluster">
<title>cluster_grid</title>
<polygon fill="transparent" stroke="#a9bdd6" points="569,-8 569,-83 813,-83 813,-8 569,-8"/>
<text text-anchor="middle" x="691" y="-67.8" font-family="Helvetica,sans-Serif" font-size="14.00">Grid</text>
</g>
<g id="clust3" class="cluster">
<title>cluster_rules</title>
<polygon fill="transparent" stroke="#a9bdd6" points="8,-8 8,-166 414,-166 414,-8 8,-8"/>
<text text-anchor="middle" x="211" y="-150.8" font-family="Helvetica,sans-Serif" font-size="14.00">Rules</text>
</g>
<g id="clust4" class="cluster">
<title>cluster_ai</title>
<polygon fill="transparent" stroke="#a9bdd6" points="422,-91 422,-249 617,-249 617,-91 422,-91"/>
<text text-anchor="middle" x="519.5" y="-233.8" font-family="Helvetica,sans-Serif" font-size="14.00">AI</text>
</g>
<g id="clust5" class="cluster">
<title>cluster_content</title>
<polygon fill="transparent" stroke="#a9bdd6" points="728,-174 728,-249 1031,-249 1031,-174 728,-174"/>
<text text-anchor="middle" x="879.5" y="-233.8" font-family="Helvetica,sans-Serif" font-size="14.00">Content</text>
</g>
<g id="clust6" class="cluster">
<title>cluster_script</title>
<polygon fill="transparent" stroke="#a9bdd6" points="24,-174 24,-401 126,-401 126,-174 24,-174"/>
<text text-anchor="middle" x="75" y="-385.8" font-family="Helvetica,sans-Serif" font-size="14.00">Scripting</text>
</g>
<!-- GameLoop -->
<g id="node1" class="node">
<title>GameLoop</title>
<path fill="#f7f9fc" stroke="#2f3a4a" d="M838.5,-135C838.5,-135 787.5,-135 787.5,-135 781.5,-135 775.5,-129 775.5,-123 775.5,-123 775.5,-111 775.5,-111 775.5,-105 781.5,-99 787.5,-99 787.5,-99 838.5,-99 838.5,-99 844.5,-99 850.5,-105 850.5,-111 850.5,-111 850.5,-123 850.5,-123 850.5,-129 844.5,-135 838.5,-135"/>
<text text-anchor="middle" x="813" y="-114.2" font-family="Helvetica,sans-Serif" font-size="11.00">GameLoop</text>
</g>
<!-- Movement -->
<g id="node8" class="node">
<title>Movement</title>
<path fill="#f7f9fc" stroke="#2f3a4a" d="M265,-135C265,-135 173,-135 173,-135 167,-135 161,-129 161,-123 161,-123 161,-111 161,-111 161,-105 167,-99 173,-99 173,-99 265,-99 265,-99 271,-99 277,-105 277,-111 277,-111 277,-123 277,-123 277,-129 271,-135 265,-135"/>
<text text-anchor="middle" x="219" y="-114.2" font-family="Helvetica,sans-Serif" font-size="11.00">MovementSystem</text>
</g>
<!-- GameLoop&#45;&gt;Movement -->
<g id="edge3" class="edge">
<title>GameLoop&#45;&gt;Movement</title>
<path fill="none" stroke="#45556a" d="M800.05,-135.13C788.46,-149.22 770.02,-166.88 748.5,-170 724.09,-173.54 328.91,-173.54 304.5,-170 281.97,-166.73 260.21,-153.05 244.28,-140.4"/>
<polygon fill="#45556a" stroke="#45556a" points="245.78,-138.01 237.83,-135.08 242.22,-142.33 245.78,-138.01"/>
</g>
<!-- World -->
<g id="node2" class="node">
<title>World</title>
<path fill="#f7f9fc" stroke="#2f3a4a" d="M920,-135C920,-135 890,-135 890,-135 884,-135 878,-129 878,-123 878,-123 878,-111 878,-111 878,-105 884,-99 890,-99 890,-99 920,-99 920,-99 926,-99 932,-105 932,-111 932,-111 932,-123 932,-123 932,-129 926,-135 920,-135"/>
<text text-anchor="middle" x="905" y="-114.2" font-family="Helvetica,sans-Serif" font-size="11.00">World</text>
</g>
<!-- TileMap -->
<g id="node5" class="node">
<title>TileMap</title>
<path fill="#f7f9fc" stroke="#2f3a4a" d="M624.5,-52C624.5,-52 589.5,-52 589.5,-52 583.5,-52 577.5,-46 577.5,-40 577.5,-40 577.5,-28 577.5,-28 577.5,-22 583.5,-16 589.5,-16 589.5,-16 624.5,-16 624.5,-16 630.5,-16 636.5,-22 636.5,-28 636.5,-28 636.5,-40 636.5,-40 636.5,-46 630.5,-52 624.5,-52"/>
<text text-anchor="middle" x="607" y="-31.2" font-family="Helvetica,sans-Serif" font-size="11.00">TileMap</text>
</g>
<!-- World&#45;&gt;TileMap -->
<g id="edge1" class="edge">
<title>World&#45;&gt;TileMap</title>
<path fill="none" stroke="#45556a" d="M881.25,-98.76C875.83,-95.62 869.91,-92.78 864,-91 818.65,-77.34 693.99,-102.88 651,-83 639.61,-77.73 629.82,-68 622.39,-58.67"/>
<polygon fill="#45556a" stroke="#45556a" points="624.44,-56.74 617.4,-52.02 619.96,-60.1 624.44,-56.74"/>
</g>
<!-- Entity -->
<g id="node3" class="node">
<title>Entity</title>
<path fill="#f7f9fc" stroke="#2f3a4a" d="M1001,-135C1001,-135 971,-135 971,-135 965,-135 959,-129 959,-123 959,-123 959,-111 959,-111 959,-105 965,-99 971,-99 971,-99 1001,-99 1001,-99 1007,-99 1013,-105 1013,-111 1013,-111 1013,-123 1013,-123 1013,-129 1007,-135 1001,-135"/>
<text text-anchor="middle" x="986" y="-114.2" font-family="Helvetica,sans-Serif" font-size="11.00">Entity</text>
</g>
<!-- Position -->
<g id="node7" class="node">
<title>Position</title>
<path fill="#f7f9fc" stroke="#2f3a4a" d="M792.5,-52C792.5,-52 757.5,-52 757.5,-52 751.5,-52 745.5,-46 745.5,-40 745.5,-40 745.5,-28 745.5,-28 745.5,-22 751.5,-16 757.5,-16 757.5,-16 792.5,-16 792.5,-16 798.5,-16 804.5,-22 804.5,-28 804.5,-28 804.5,-40 804.5,-40 804.5,-46 798.5,-52 792.5,-52"/>
<text text-anchor="middle" x="775" y="-31.2" font-family="Helvetica,sans-Serif" font-size="11.00">Position</text>
</g>
<!-- Entity&#45;&gt;Position -->
<g id="edge2" class="edge">
<title>Entity&#45;&gt;Position</title>
<path fill="none" stroke="#45556a" d="M960.7,-98.91C955.93,-96.06 950.9,-93.29 946,-91 901.86,-70.35 848.02,-54.07 812.69,-44.51"/>
<polygon fill="#45556a" stroke="#45556a" points="813.02,-41.7 804.56,-42.34 811.57,-47.11 813.02,-41.7"/>
</g>
<!-- Events -->
<g id="node4" class="node">
<title>Events</title>
<path fill="#f7f9fc" stroke="#2f3a4a" d="M736,-135C736,-135 692,-135 692,-135 686,-135 680,-129 680,-123 680,-123 680,-111 680,-111 680,-105 686,-99 692,-99 692,-99 736,-99 736,-99 742,-99 748,-105 748,-111 748,-111 748,-123 748,-123 748,-129 742,-135 736,-135"/>
<text text-anchor="middle" x="714" y="-114.2" font-family="Helvetica,sans-Serif" font-size="11.00">EventBus</text>
</g>
<!-- Tile -->
<g id="node6" class="node">
<title>Tile</title>
<path fill="#f7f9fc" stroke="#2f3a4a" d="M706,-52C706,-52 676,-52 676,-52 670,-52 664,-46 664,-40 664,-40 664,-28 664,-28 664,-22 670,-16 676,-16 676,-16 706,-16 706,-16 712,-16 718,-22 718,-28 718,-28 718,-40 718,-40 718,-46 712,-52 706,-52"/>
<text text-anchor="middle" x="691" y="-31.2" font-family="Helvetica,sans-Serif" font-size="11.00">Tile</text>
</g>
<!-- Movement&#45;&gt;TileMap -->
<g id="edge4" class="edge">
<title>Movement&#45;&gt;TileMap</title>
<path fill="none" stroke="#45556a" d="M261.87,-98.98C271.33,-95.83 281.4,-92.93 291,-91 347.32,-79.7 363.26,-91.96 420,-83 472.48,-74.71 531.66,-58.29 569.13,-46.98"/>
<polygon fill="#45556a" stroke="#45556a" points="570.41,-49.51 577.25,-44.5 568.78,-44.16 570.41,-49.51"/>
</g>
<!-- Combat -->
<g id="node9" class="node">
<title>Combat</title>
<path fill="#f7f9fc" stroke="#2f3a4a" d="M393.5,-135C393.5,-135 316.5,-135 316.5,-135 310.5,-135 304.5,-129 304.5,-123 304.5,-123 304.5,-111 304.5,-111 304.5,-105 310.5,-99 316.5,-99 316.5,-99 393.5,-99 393.5,-99 399.5,-99 405.5,-105 405.5,-111 405.5,-111 405.5,-123 405.5,-123 405.5,-129 399.5,-135 393.5,-135"/>
<text text-anchor="middle" x="355" y="-114.2" font-family="Helvetica,sans-Serif" font-size="11.00">CombatSystem</text>
</g>
<!-- Combat&#45;&gt;Entity -->
<g id="edge5" class="edge">
<title>Combat&#45;&gt;Entity</title>
<path fill="none" stroke="#45556a" d="M370.9,-135.26C384.7,-149.21 406.09,-166.61 429.5,-170 457.16,-174.01 904.84,-174.01 932.5,-170 938.69,-169.1 940.79,-169.47 946,-166 955.47,-159.7 963.83,-150.47 970.42,-141.72"/>
<polygon fill="#45556a" stroke="#45556a" points="972.72,-143.31 975.11,-135.18 968.17,-140.05 972.72,-143.31"/>
</g>
<!-- Inventory -->
<g id="node10" class="node">
<title>Inventory</title>
<path fill="#f7f9fc" stroke="#2f3a4a" d="M118,-52C118,-52 32,-52 32,-52 26,-52 20,-46 20,-40 20,-40 20,-28 20,-28 20,-22 26,-16 32,-16 32,-16 118,-16 118,-16 124,-16 130,-22 130,-28 130,-28 130,-40 130,-40 130,-46 124,-52 118,-52"/>
<text text-anchor="middle" x="75" y="-31.2" font-family="Helvetica,sans-Serif" font-size="11.00">InventorySystem</text>
</g>
<!-- Interaction -->
<g id="node11" class="node">
<title>Interaction</title>
<path fill="#f7f9fc" stroke="#2f3a4a" d="M121.5,-135C121.5,-135 28.5,-135 28.5,-135 22.5,-135 16.5,-129 16.5,-123 16.5,-123 16.5,-111 16.5,-111 16.5,-105 22.5,-99 28.5,-99 28.5,-99 121.5,-99 121.5,-99 127.5,-99 133.5,-105 133.5,-111 133.5,-111 133.5,-123 133.5,-123 133.5,-129 127.5,-135 121.5,-135"/>
<text text-anchor="middle" x="75" y="-114.2" font-family="Helvetica,sans-Serif" font-size="11.00">InteractionSystem</text>
</g>
<!-- Interaction&#45;&gt;Inventory -->
<g id="edge6" class="edge">
<title>Interaction&#45;&gt;Inventory</title>
<path fill="none" stroke="#45556a" d="M75,-98.82C75,-87.65 75,-72.9 75,-60.38"/>
<polygon fill="#45556a" stroke="#45556a" points="77.8,-60.15 75,-52.15 72.2,-60.15 77.8,-60.15"/>
</g>
<!-- Behavior -->
<g id="node12" class="node">
<title>Behavior</title>
<path fill="#f7f9fc" stroke="#2f3a4a" d="M483.5,-218C483.5,-218 442.5,-218 442.5,-218 436.5,-218 430.5,-212 430.5,-206 430.5,-206 430.5,-194 430.5,-194 430.5,-188 436.5,-182 442.5,-182 442.5,-182 483.5,-182 483.5,-182 489.5,-182 495.5,-188 495.5,-194 495.5,-194 495.5,-206 495.5,-206 495.5,-212 489.5,-218 483.5,-218"/>
<text text-anchor="middle" x="463" y="-197.2" font-family="Helvetica,sans-Serif" font-size="11.00">Behavior</text>
</g>
<!-- Pathfinding -->
<g id="node13" class="node">
<title>Pathfinding</title>
<path fill="#f7f9fc" stroke="#2f3a4a" d="M517.5,-135C517.5,-135 458.5,-135 458.5,-135 452.5,-135 446.5,-129 446.5,-123 446.5,-123 446.5,-111 446.5,-111 446.5,-105 452.5,-99 458.5,-99 458.5,-99 517.5,-99 517.5,-99 523.5,-99 529.5,-105 529.5,-111 529.5,-111 529.5,-123 529.5,-123 529.5,-129 523.5,-135 517.5,-135"/>
<text text-anchor="middle" x="488" y="-114.2" font-family="Helvetica,sans-Serif" font-size="11.00">A* / Dijkstra</text>
</g>
<!-- Behavior&#45;&gt;Pathfinding -->
<g id="edge7" class="edge">
<title>Behavior&#45;&gt;Pathfinding</title>
<path fill="none" stroke="#45556a" d="M468.3,-181.82C471.78,-170.55 476.39,-155.61 480.28,-143.02"/>
<polygon fill="#45556a" stroke="#45556a" points="483.02,-143.62 482.71,-135.15 477.67,-141.97 483.02,-143.62"/>
</g>
<!-- Pathfinding&#45;&gt;TileMap -->
<g id="edge8" class="edge">
<title>Pathfinding&#45;&gt;TileMap</title>
<path fill="none" stroke="#45556a" d="M513.24,-98.82C531.3,-86.53 555.76,-69.88 575.16,-56.67"/>
<polygon fill="#45556a" stroke="#45556a" points="576.76,-58.97 581.8,-52.15 573.61,-54.34 576.76,-58.97"/>
</g>
<!-- FOV -->
<g id="node14" class="node">
<title>FOV</title>
<path fill="#f7f9fc" stroke="#2f3a4a" d="M597,-218C597,-218 535,-218 535,-218 529,-218 523,-212 523,-206 523,-206 523,-194 523,-194 523,-188 529,-182 535,-182 535,-182 597,-182 597,-182 603,-182 609,-188 609,-194 609,-194 609,-206 609,-206 609,-212 603,-218 597,-218"/>
<text text-anchor="middle" x="566" y="-197.2" font-family="Helvetica,sans-Serif" font-size="11.00">Field of View</text>
</g>
<!-- FOV&#45;&gt;TileMap -->
<g id="edge9" class="edge">
<title>FOV&#45;&gt;TileMap</title>
<path fill="none" stroke="#45556a" d="M570.31,-181.76C577.59,-152.65 592.34,-93.63 600.75,-59.98"/>
<polygon fill="#45556a" stroke="#45556a" points="603.52,-60.45 602.75,-52.01 598.09,-59.09 603.52,-60.45"/>
</g>
<!-- ProcGen -->
<g id="node15" class="node">
<title>ProcGen</title>
<path fill="#f7f9fc" stroke="#2f3a4a" d="M801.5,-218C801.5,-218 748.5,-218 748.5,-218 742.5,-218 736.5,-212 736.5,-206 736.5,-206 736.5,-194 736.5,-194 736.5,-188 742.5,-182 748.5,-182 748.5,-182 801.5,-182 801.5,-182 807.5,-182 813.5,-188 813.5,-194 813.5,-194 813.5,-206 813.5,-206 813.5,-212 807.5,-218 801.5,-218"/>
<text text-anchor="middle" x="775" y="-203.2" font-family="Helvetica,sans-Serif" font-size="11.00">Procedural</text>
<text text-anchor="middle" x="775" y="-191.2" font-family="Helvetica,sans-Serif" font-size="11.00">Generation</text>
</g>
<!-- ProcGen&#45;&gt;TileMap -->
<g id="edge11" class="edge">
<title>ProcGen&#45;&gt;TileMap</title>
<path fill="none" stroke="#45556a" d="M736.33,-195.31C713.55,-191.34 685.46,-183.09 666,-166 649.26,-151.29 627.15,-93.3 615.31,-59.61"/>
<polygon fill="#45556a" stroke="#45556a" points="617.94,-58.65 612.68,-52.01 612.65,-60.49 617.94,-58.65"/>
</g>
<!-- Data -->
<g id="node16" class="node">
<title>Data</title>
<path fill="#f7f9fc" stroke="#2f3a4a" d="M1011.5,-218C1011.5,-218 960.5,-218 960.5,-218 954.5,-218 948.5,-212 948.5,-206 948.5,-206 948.5,-194 948.5,-194 948.5,-188 954.5,-182 960.5,-182 960.5,-182 1011.5,-182 1011.5,-182 1017.5,-182 1023.5,-188 1023.5,-194 1023.5,-194 1023.5,-206 1023.5,-206 1023.5,-212 1017.5,-218 1011.5,-218"/>
<text text-anchor="middle" x="986" y="-203.2" font-family="Helvetica,sans-Serif" font-size="11.00">JSON</text>
<text text-anchor="middle" x="986" y="-191.2" font-family="Helvetica,sans-Serif" font-size="11.00">Definitions</text>
</g>
<!-- Data&#45;&gt;Entity -->
<g id="edge10" class="edge">
<title>Data&#45;&gt;Entity</title>
<path fill="none" stroke="#45556a" d="M986,-181.82C986,-170.65 986,-155.9 986,-143.38"/>
<polygon fill="#45556a" stroke="#45556a" points="988.8,-143.15 986,-135.15 983.2,-143.15 988.8,-143.15"/>
</g>
<!-- Save -->
<g id="node17" class="node">
<title>Save</title>
<path fill="#f7f9fc" stroke="#2f3a4a" d="M909.5,-218C909.5,-218 852.5,-218 852.5,-218 846.5,-218 840.5,-212 840.5,-206 840.5,-206 840.5,-194 840.5,-194 840.5,-188 846.5,-182 852.5,-182 852.5,-182 909.5,-182 909.5,-182 915.5,-182 921.5,-188 921.5,-194 921.5,-194 921.5,-206 921.5,-206 921.5,-212 915.5,-218 909.5,-218"/>
<text text-anchor="middle" x="881" y="-197.2" font-family="Helvetica,sans-Serif" font-size="11.00">Save / Load</text>
</g>
<!-- Save&#45;&gt;World -->
<g id="edge12" class="edge">
<title>Save&#45;&gt;World</title>
<path fill="none" stroke="#45556a" d="M886.09,-181.82C889.43,-170.55 893.86,-155.61 897.59,-143.02"/>
<polygon fill="#45556a" stroke="#45556a" points="900.33,-143.62 899.92,-135.15 894.96,-142.03 900.33,-143.62"/>
</g>
<!-- Roslyn -->
<g id="node18" class="node">
<title>Roslyn</title>
<path fill="#f7f9fc" stroke="#2f3a4a" d="M100,-218C100,-218 50,-218 50,-218 44,-218 38,-212 38,-206 38,-206 38,-194 38,-194 38,-188 44,-182 50,-182 50,-182 100,-182 100,-182 106,-182 112,-188 112,-194 112,-194 112,-206 112,-206 112,-212 106,-218 100,-218"/>
<text text-anchor="middle" x="75" y="-197.2" font-family="Helvetica,sans-Serif" font-size="11.00">C# Scripts</text>
</g>
<!-- Roslyn&#45;&gt;Interaction -->
<g id="edge15" class="edge">
<title>Roslyn&#45;&gt;Interaction</title>
<path fill="none" stroke="#45556a" d="M75,-181.82C75,-170.65 75,-155.9 75,-143.38"/>
<polygon fill="#45556a" stroke="#45556a" points="77.8,-143.15 75,-135.15 72.2,-143.15 77.8,-143.15"/>
</g>
<!-- Visual -->
<g id="node19" class="node">
<title>Visual</title>
<path fill="#f7f9fc" stroke="#2f3a4a" d="M105.5,-370C105.5,-370 44.5,-370 44.5,-370 38.5,-370 32.5,-364 32.5,-358 32.5,-358 32.5,-346 32.5,-346 32.5,-340 38.5,-334 44.5,-334 44.5,-334 105.5,-334 105.5,-334 111.5,-334 117.5,-340 117.5,-346 117.5,-346 117.5,-358 117.5,-358 117.5,-364 111.5,-370 105.5,-370"/>
<text text-anchor="middle" x="75" y="-355.2" font-family="Helvetica,sans-Serif" font-size="11.00">Visual Script</text>
<text text-anchor="middle" x="75" y="-343.2" font-family="Helvetica,sans-Serif" font-size="11.00">Graph</text>
</g>
<!-- Compiler -->
<g id="node20" class="node">
<title>Compiler</title>
<path fill="#f7f9fc" stroke="#2f3a4a" d="M106,-294C106,-294 44,-294 44,-294 38,-294 32,-288 32,-282 32,-282 32,-270 32,-270 32,-264 38,-258 44,-258 44,-258 106,-258 106,-258 112,-258 118,-264 118,-270 118,-270 118,-282 118,-282 118,-288 112,-294 106,-294"/>
<text text-anchor="middle" x="75" y="-273.2" font-family="Helvetica,sans-Serif" font-size="11.00">Graph &#45;&gt; C#</text>
</g>
<!-- Visual&#45;&gt;Compiler -->
<g id="edge13" class="edge">
<title>Visual&#45;&gt;Compiler</title>
<path fill="none" stroke="#45556a" d="M75,-333.84C75,-324.4 75,-312.53 75,-302.07"/>
<polygon fill="#45556a" stroke="#45556a" points="77.8,-302.07 75,-294.07 72.2,-302.07 77.8,-302.07"/>
</g>
<!-- Compiler&#45;&gt;Roslyn -->
<g id="edge14" class="edge">
<title>Compiler&#45;&gt;Roslyn</title>
<path fill="none" stroke="#45556a" d="M75,-257.84C75,-248.4 75,-236.53 75,-226.07"/>
<polygon fill="#45556a" stroke="#45556a" points="77.8,-226.07 75,-218.07 72.2,-226.07 77.8,-226.07"/>
</g>
</g>
</svg>
