<?xml version="1.0" encoding="UTF-8" standalone="no"?>
<!DOCTYPE svg PUBLIC "-//W3C//DTD SVG 1.1//EN"
 "http://www.w3.org/Graphics/SVG/1.1/DTD/svg11.dtd">
<!-- Generated by graphviz version 2.42.4 (0)
 -->
<!-- Title: G Pages: 1 -->
<svg width="316pt" height="756pt"
 viewBox="0.00 0.00 315.50 756.00" xmlns="http://www.w3.org/2000/svg" xmlns:xlink="http://www.w3.org/1999/xlink">
<g id="graph0" class="graph" transform="scale(1 1) rotate(0) translate(4 752)">
<title>G</title>
<!-- A -->
<g id="node1" class="node">
<title>A</title>
<path fill="#fff7e6" stroke="#2f3a4a" d="M195.5,-748C195.5,-748 119.5,-748 119.5,-748 113.5,-748 107.5,-742 107.5,-736 107.5,-736 107.5,-724 107.5,-724 107.5,-718 113.5,-712 119.5,-712 119.5,-712 195.5,-712 195.5,-712 201.5,-712 207.5,-718 207.5,-724 207.5,-724 207.5,-736 207.5,-736 207.5,-742 201.5,-748 195.5,-748"/>
<text text-anchor="middle" x="157.5" y="-727.2" font-family="Helvetica,sans-Serif" font-size="11.00">Projeto do jogo</text>
</g>
<!-- B -->
<g id="node2" class="node">
<title>B</title>
<path fill="#f7f9fc" stroke="#2f3a4a" d="M192.5,-672C192.5,-672 122.5,-672 122.5,-672 116.5,-672 110.5,-666 110.5,-660 110.5,-660 110.5,-648 110.5,-648 110.5,-642 116.5,-636 122.5,-636 122.5,-636 192.5,-636 192.5,-636 198.5,-636 204.5,-642 204.5,-648 204.5,-648 204.5,-660 204.5,-660 204.5,-666 198.5,-672 192.5,-672"/>
<text text-anchor="middle" x="157.5" y="-657.2" font-family="Helvetica,sans-Serif" font-size="11.00">Validar</text>
<text text-anchor="middle" x="157.5" y="-645.2" font-family="Helvetica,sans-Serif" font-size="11.00">game.mrgproj</text>
</g>
<!-- A&#45;&gt;B -->
<g id="edge1" class="edge">
<title>A&#45;&gt;B</title>
<path fill="none" stroke="#45556a" d="M157.5,-711.84C157.5,-702.4 157.5,-690.53 157.5,-680.07"/>
<polygon fill="#45556a" stroke="#45556a" points="160.3,-680.07 157.5,-672.07 154.7,-680.07 160.3,-680.07"/>
</g>
<!-- C -->
<g id="node3" class="node">
<title>C</title>
<path fill="#f7f9fc" stroke="#2f3a4a" d="M191,-596C191,-596 124,-596 124,-596 118,-596 112,-590 112,-584 112,-584 112,-572 112,-572 112,-566 118,-560 124,-560 124,-560 191,-560 191,-560 197,-560 203,-566 203,-572 203,-572 203,-584 203,-584 203,-590 197,-596 191,-596"/>
<text text-anchor="middle" x="157.5" y="-581.2" font-family="Helvetica,sans-Serif" font-size="11.00">Gerar C# dos</text>
<text text-anchor="middle" x="157.5" y="-569.2" font-family="Helvetica,sans-Serif" font-size="11.00">VisualScripts</text>
</g>
<!-- B&#45;&gt;C -->
<g id="edge2" class="edge">
<title>B&#45;&gt;C</title>
<path fill="none" stroke="#45556a" d="M157.5,-635.84C157.5,-626.4 157.5,-614.53 157.5,-604.07"/>
<polygon fill="#45556a" stroke="#45556a" points="160.3,-604.07 157.5,-596.07 154.7,-604.07 160.3,-604.07"/>
</g>
<!-- D -->
<g id="node4" class="node">
<title>D</title>
<path fill="#f7f9fc" stroke="#2f3a4a" d="M182.5,-520C182.5,-520 132.5,-520 132.5,-520 126.5,-520 120.5,-514 120.5,-508 120.5,-508 120.5,-496 120.5,-496 120.5,-490 126.5,-484 132.5,-484 132.5,-484 182.5,-484 182.5,-484 188.5,-484 194.5,-490 194.5,-496 194.5,-496 194.5,-508 194.5,-508 194.5,-514 188.5,-520 182.5,-520"/>
<text text-anchor="middle" x="157.5" y="-505.2" font-family="Helvetica,sans-Serif" font-size="11.00">Compilar</text>
<text text-anchor="middle" x="157.5" y="-493.2" font-family="Helvetica,sans-Serif" font-size="11.00">Scripts C#</text>
</g>
<!-- C&#45;&gt;D -->
<g id="edge3" class="edge">
<title>C&#45;&gt;D</title>
<path fill="none" stroke="#45556a" d="M157.5,-559.84C157.5,-550.4 157.5,-538.53 157.5,-528.07"/>
<polygon fill="#45556a" stroke="#45556a" points="160.3,-528.07 157.5,-520.07 154.7,-528.07 160.3,-528.07"/>
</g>
<!-- E -->
<g id="node5" class="node">
<title>E</title>
<path fill="#f7f9fc" stroke="#2f3a4a" d="M187,-444C187,-444 128,-444 128,-444 122,-444 116,-438 116,-432 116,-432 116,-420 116,-420 116,-414 122,-408 128,-408 128,-408 187,-408 187,-408 193,-408 199,-414 199,-420 199,-420 199,-432 199,-432 199,-438 193,-444 187,-444"/>
<text text-anchor="middle" x="157.5" y="-429.2" font-family="Helvetica,sans-Serif" font-size="11.00">Copiar</text>
<text text-anchor="middle" x="157.5" y="-417.2" font-family="Helvetica,sans-Serif" font-size="11.00">Assets/Data</text>
</g>
<!-- D&#45;&gt;E -->
<g id="edge4" class="edge">
<title>D&#45;&gt;E</title>
<path fill="none" stroke="#45556a" d="M157.5,-483.84C157.5,-474.4 157.5,-462.53 157.5,-452.07"/>
<polygon fill="#45556a" stroke="#45556a" points="160.3,-452.07 157.5,-444.07 154.7,-452.07 160.3,-452.07"/>
</g>
<!-- F -->
<g id="node6" class="node">
<title>F</title>
<path fill="#f7f9fc" stroke="#2f3a4a" d="M176.5,-368C176.5,-368 138.5,-368 138.5,-368 132.5,-368 126.5,-362 126.5,-356 126.5,-356 126.5,-344 126.5,-344 126.5,-338 132.5,-332 138.5,-332 138.5,-332 176.5,-332 176.5,-332 182.5,-332 188.5,-338 188.5,-344 188.5,-344 188.5,-356 188.5,-356 188.5,-362 182.5,-368 176.5,-368"/>
<text text-anchor="middle" x="157.5" y="-353.2" font-family="Helvetica,sans-Serif" font-size="11.00">Montar</text>
<text text-anchor="middle" x="157.5" y="-341.2" font-family="Helvetica,sans-Serif" font-size="11.00">Runtime</text>
</g>
<!-- E&#45;&gt;F -->
<g id="edge5" class="edge">
<title>E&#45;&gt;F</title>
<path fill="none" stroke="#45556a" d="M157.5,-407.84C157.5,-398.4 157.5,-386.53 157.5,-376.07"/>
<polygon fill="#45556a" stroke="#45556a" points="160.3,-376.07 157.5,-368.07 154.7,-376.07 160.3,-376.07"/>
</g>
<!-- G -->
<g id="node7" class="node">
<title>G</title>
<path fill="#fdefef" stroke="#2f3a4a" d="M193,-292C193,-292 122,-292 122,-292 116,-292 110,-286 110,-280 110,-280 110,-268 110,-268 110,-262 116,-256 122,-256 122,-256 193,-256 193,-256 199,-256 205,-262 205,-268 205,-268 205,-280 205,-280 205,-286 199,-292 193,-292"/>
<text text-anchor="middle" x="157.5" y="-271.2" font-family="Helvetica,sans-Serif" font-size="11.00">dotnet publish</text>
</g>
<!-- F&#45;&gt;G -->
<g id="edge6" class="edge">
<title>F&#45;&gt;G</title>
<path fill="none" stroke="#45556a" d="M157.5,-331.84C157.5,-322.4 157.5,-310.53 157.5,-300.07"/>
<polygon fill="#45556a" stroke="#45556a" points="160.3,-300.07 157.5,-292.07 154.7,-300.07 160.3,-300.07"/>
</g>
<!-- H -->
<g id="node8" class="node">
<title>H</title>
<path fill="#f5f0ff" stroke="#2f3a4a" d="M146.06,-212.38C146.06,-212.38 67.94,-187.62 67.94,-187.62 62.22,-185.81 62.22,-182.19 67.94,-180.38 67.94,-180.38 146.06,-155.62 146.06,-155.62 151.78,-153.81 163.22,-153.81 168.94,-155.62 168.94,-155.62 247.06,-180.38 247.06,-180.38 252.78,-182.19 252.78,-185.81 247.06,-187.62 247.06,-187.62 168.94,-212.38 168.94,-212.38 163.22,-214.19 151.78,-214.19 146.06,-212.38"/>
<text text-anchor="middle" x="157.5" y="-187.2" font-family="Helvetica,sans-Serif" font-size="11.00">Escolher</text>
<text text-anchor="middle" x="157.5" y="-175.2" font-family="Helvetica,sans-Serif" font-size="11.00">tipo de entrega</text>
</g>
<!-- G&#45;&gt;H -->
<g id="edge7" class="edge">
<title>G&#45;&gt;H</title>
<path fill="none" stroke="#45556a" d="M157.5,-255.61C157.5,-246.67 157.5,-235.38 157.5,-224.47"/>
<polygon fill="#45556a" stroke="#45556a" points="160.3,-224.24 157.5,-216.24 154.7,-224.24 160.3,-224.24"/>
</g>
<!-- I -->
<g id="node9" class="node">
<title>I</title>
<path fill="#f7f9fc" stroke="#2f3a4a" d="M71,-112C71,-112 12,-112 12,-112 6,-112 0,-106 0,-100 0,-100 0,-88 0,-88 0,-82 6,-76 12,-76 12,-76 71,-76 71,-76 77,-76 83,-82 83,-88 83,-88 83,-100 83,-100 83,-106 77,-112 71,-112"/>
<text text-anchor="middle" x="41.5" y="-91.2" font-family="Helvetica,sans-Serif" font-size="11.00">Portable ZIP</text>
</g>
<!-- H&#45;&gt;I -->
<g id="edge8" class="edge">
<title>H&#45;&gt;I</title>
<path fill="none" stroke="#45556a" d="M128.53,-161.02C110.87,-147.63 88.38,-130.57 70.69,-117.14"/>
<polygon fill="#45556a" stroke="#45556a" points="71.99,-114.61 63.92,-112.01 68.6,-119.07 71.99,-114.61"/>
</g>
<!-- J -->
<g id="node10" class="node">
<title>J</title>
<path fill="#f7f9fc" stroke="#2f3a4a" d="M192.5,-112C192.5,-112 122.5,-112 122.5,-112 116.5,-112 110.5,-106 110.5,-100 110.5,-100 110.5,-88 110.5,-88 110.5,-82 116.5,-76 122.5,-76 122.5,-76 192.5,-76 192.5,-76 198.5,-76 204.5,-82 204.5,-88 204.5,-88 204.5,-100 204.5,-100 204.5,-106 198.5,-112 192.5,-112"/>
<text text-anchor="middle" x="157.5" y="-91.2" font-family="Helvetica,sans-Serif" font-size="11.00">EXE single&#45;file</text>
</g>
<!-- H&#45;&gt;J -->
<g id="edge9" class="edge">
<title>H&#45;&gt;J</title>
<path fill="none" stroke="#45556a" d="M157.5,-151.73C157.5,-141.41 157.5,-130.07 157.5,-120.26"/>
<polygon fill="#45556a" stroke="#45556a" points="160.3,-120.1 157.5,-112.1 154.7,-120.1 160.3,-120.1"/>
</g>
<!-- K -->
<g id="node11" class="node">
<title>K</title>
<path fill="#f7f9fc" stroke="#2f3a4a" d="M291,-112C291,-112 244,-112 244,-112 238,-112 232,-106 232,-100 232,-100 232,-88 232,-88 232,-82 238,-76 244,-76 244,-76 291,-76 291,-76 297,-76 303,-82 303,-88 303,-88 303,-100 303,-100 303,-106 297,-112 291,-112"/>
<text text-anchor="middle" x="267.5" y="-97.2" font-family="Helvetica,sans-Serif" font-size="11.00">Instalador</text>
<text text-anchor="middle" x="267.5" y="-85.2" font-family="Helvetica,sans-Serif" font-size="11.00">MSI/EXE</text>
</g>
<!-- H&#45;&gt;K -->
<g id="edge10" class="edge">
<title>H&#45;&gt;K</title>
<path fill="none" stroke="#45556a" d="M185.26,-160.79C201.89,-147.49 222.97,-130.63 239.62,-117.3"/>
<polygon fill="#45556a" stroke="#45556a" points="241.5,-119.39 246,-112.2 238,-115.01 241.5,-119.39"/>
</g>
<!-- L -->
<g id="node12" class="node">
<title>L</title>
<path fill="#fdefef" stroke="#2f3a4a" d="M295.5,-36C295.5,-36 239.5,-36 239.5,-36 233.5,-36 227.5,-30 227.5,-24 227.5,-24 227.5,-12 227.5,-12 227.5,-6 233.5,0 239.5,0 239.5,0 295.5,0 295.5,0 301.5,0 307.5,-6 307.5,-12 307.5,-12 307.5,-24 307.5,-24 307.5,-30 301.5,-36 295.5,-36"/>
<text text-anchor="middle" x="267.5" y="-15.2" font-family="Helvetica,sans-Serif" font-size="11.00">WiX Toolset</text>
</g>
<!-- K&#45;&gt;L -->
<g id="edge11" class="edge">
<title>K&#45;&gt;L</title>
<path fill="none" stroke="#45556a" d="M267.5,-75.84C267.5,-66.4 267.5,-54.53 267.5,-44.07"/>
<polygon fill="#45556a" stroke="#45556a" points="270.3,-44.07 267.5,-36.07 264.7,-44.07 270.3,-44.07"/>
</g>
</g>
</svg>
