<?xml version="1.0" encoding="UTF-8" standalone="no"?>
<!DOCTYPE svg PUBLIC "-//W3C//DTD SVG 1.1//EN"
 "http://www.w3.org/Graphics/SVG/1.1/DTD/svg11.dtd">
<!-- Generated by graphviz version 2.42.4 (0)
 -->
<!-- Title: G Pages: 1 -->
<svg width="1053pt" height="159pt"
 viewBox="0.00 0.00 1053.00 159.00" xmlns="http://www.w3.org/2000/svg" xmlns:xlink="http://www.w3.org/1999/xlink">
<g id="graph0" class="graph" transform="scale(1 1) rotate(0) translate(4 155)">
<title>G</title>
<!-- Jog -->
<g id="node1" class="node">
<title>Jog</title>
<path fill="#f7f9fc" stroke="#2f3a4a" d="M46,-46C46,-46 12,-46 12,-46 6,-46 0,-40 0,-34 0,-34 0,-22 0,-22 0,-16 6,-10 12,-10 12,-10 46,-10 46,-10 52,-10 58,-16 58,-22 58,-22 58,-34 58,-34 58,-40 52,-46 46,-46"/>
<text text-anchor="middle" x="29" y="-25.2" font-family="Helvetica,sans-Serif" font-size="11.00">Jogador</text>
</g>
<!-- Input -->
<g id="node2" class="node">
<title>Input</title>
<path fill="#f7f9fc" stroke="#2f3a4a" d="M198,-83C198,-83 135,-83 135,-83 129,-83 123,-77 123,-71 123,-71 123,-59 123,-59 123,-53 129,-47 135,-47 135,-47 198,-47 198,-47 204,-47 210,-53 210,-59 210,-59 210,-71 210,-71 210,-77 204,-83 198,-83"/>
<text text-anchor="middle" x="166.5" y="-62.2" font-family="Helvetica,sans-Serif" font-size="11.00">InputHandler</text>
</g>
<!-- Jog&#45;&gt;Input -->
<g id="edge1" class="edge">
<title>Jog&#45;&gt;Input</title>
<path fill="none" stroke="#45556a" d="M58.08,-35.67C74.5,-40.15 95.71,-45.94 114.95,-51.2"/>
<polygon fill="#45556a" stroke="#45556a" points="114.32,-53.93 122.77,-53.33 115.79,-48.52 114.32,-53.93"/>
<text text-anchor="middle" x="90.5" y="-51" font-family="Helvetica,sans-Serif" font-size="10.00">tecla</text>
</g>
<!-- Cmd -->
<g id="node3" class="node">
<title>Cmd</title>
<path fill="#f7f9fc" stroke="#2f3a4a" d="M388,-89C388,-89 340,-89 340,-89 334,-89 328,-83 328,-77 328,-77 328,-65 328,-65 328,-59 334,-53 340,-53 340,-53 388,-53 388,-53 394,-53 400,-59 400,-65 400,-65 400,-77 400,-77 400,-83 394,-89 388,-89"/>
<text text-anchor="middle" x="364" y="-68.2" font-family="Helvetica,sans-Serif" font-size="11.00">Command</text>
</g>
<!-- Input&#45;&gt;Cmd -->
<g id="edge2" class="edge">
<title>Input&#45;&gt;Cmd</title>
<path fill="none" stroke="#45556a" d="M210.4,-66.32C242.84,-67.31 287.18,-68.67 319.71,-69.67"/>
<polygon fill="#45556a" stroke="#45556a" points="319.62,-72.47 327.71,-69.92 319.8,-66.87 319.62,-72.47"/>
<text text-anchor="middle" x="269" y="-72" font-family="Helvetica,sans-Serif" font-size="10.00">MoveCommand</text>
</g>
<!-- Rules -->
<g id="node4" class="node">
<title>Rules</title>
<path fill="#f7f9fc" stroke="#2f3a4a" d="M580,-111C580,-111 525,-111 525,-111 519,-111 513,-105 513,-99 513,-99 513,-87 513,-87 513,-81 519,-75 525,-75 525,-75 580,-75 580,-75 586,-75 592,-81 592,-87 592,-87 592,-99 592,-99 592,-105 586,-111 580,-111"/>
<text text-anchor="middle" x="552.5" y="-90.2" font-family="Helvetica,sans-Serif" font-size="11.00">GameRules</text>
</g>
<!-- Cmd&#45;&gt;Rules -->
<g id="edge3" class="edge">
<title>Cmd&#45;&gt;Rules</title>
<path fill="none" stroke="#45556a" d="M400.08,-75.14C429.65,-78.63 472.22,-83.65 504.69,-87.48"/>
<polygon fill="#45556a" stroke="#45556a" points="504.44,-90.27 512.72,-88.42 505.1,-84.71 504.44,-90.27"/>
<text text-anchor="middle" x="456.5" y="-88" font-family="Helvetica,sans-Serif" font-size="10.00">Execute(world)</text>
</g>
<!-- Turn -->
<g id="node5" class="node">
<title>Turn</title>
<path fill="#f7f9fc" stroke="#2f3a4a" d="M817.5,-105C817.5,-105 753.5,-105 753.5,-105 747.5,-105 741.5,-99 741.5,-93 741.5,-93 741.5,-81 741.5,-81 741.5,-75 747.5,-69 753.5,-69 753.5,-69 817.5,-69 817.5,-69 823.5,-69 829.5,-75 829.5,-81 829.5,-81 829.5,-93 829.5,-93 829.5,-99 823.5,-105 817.5,-105"/>
<text text-anchor="middle" x="785.5" y="-84.2" font-family="Helvetica,sans-Serif" font-size="11.00">TurnManager</text>
</g>
<!-- Rules&#45;&gt;Turn -->
<g id="edge4" class="edge">
<title>Rules&#45;&gt;Turn</title>
<path fill="none" stroke="#45556a" d="M592.16,-92C630.9,-90.99 690.73,-89.44 733.36,-88.33"/>
<polygon fill="#45556a" stroke="#45556a" points="733.46,-91.13 741.38,-88.12 733.31,-85.53 733.46,-91.13"/>
<text text-anchor="middle" x="656" y="-94" font-family="Helvetica,sans-Serif" font-size="10.00">consome turno</text>
</g>
<!-- Render -->
<g id="node7" class="node">
<title>Render</title>
<path fill="#f7f9fc" stroke="#2f3a4a" d="M839,-36C839,-36 732,-36 732,-36 726,-36 720,-30 720,-24 720,-24 720,-12 720,-12 720,-6 726,0 732,0 732,0 839,0 839,0 845,0 851,-6 851,-12 851,-12 851,-24 851,-24 851,-30 845,-36 839,-36"/>
<text text-anchor="middle" x="785.5" y="-15.2" font-family="Helvetica,sans-Serif" font-size="11.00">SadConsoleRenderer</text>
</g>
<!-- Rules&#45;&gt;Render -->
<g id="edge7" class="edge">
<title>Rules&#45;&gt;Render</title>
<path fill="none" stroke="#45556a" d="M592.13,-78.88C598.74,-76.54 605.56,-74.16 612,-72 646.42,-60.44 684.96,-48.3 716.87,-38.47"/>
<polygon fill="#45556a" stroke="#45556a" points="718.01,-41.04 724.83,-36.02 716.36,-35.69 718.01,-41.04"/>
<text text-anchor="middle" x="656" y="-75" font-family="Helvetica,sans-Serif" font-size="10.00">estado atualizado</text>
</g>
<!-- AI -->
<g id="node6" class="node">
<title>AI</title>
<path fill="#f7f9fc" stroke="#2f3a4a" d="M1033,-151C1033,-151 992,-151 992,-151 986,-151 980,-145 980,-139 980,-139 980,-127 980,-127 980,-121 986,-115 992,-115 992,-115 1033,-115 1033,-115 1039,-115 1045,-121 1045,-127 1045,-127 1045,-139 1045,-139 1045,-145 1039,-151 1033,-151"/>
<text text-anchor="middle" x="1012.5" y="-130.2" font-family="Helvetica,sans-Serif" font-size="11.00">EnemyAI</text>
</g>
<!-- Turn&#45;&gt;AI -->
<g id="edge5" class="edge">
<title>Turn&#45;&gt;AI</title>
<path fill="none" stroke="#45556a" d="M829.62,-95.81C870.68,-104.21 931.98,-116.74 971.86,-124.9"/>
<polygon fill="#45556a" stroke="#45556a" points="971.38,-127.66 979.78,-126.52 972.5,-122.17 971.38,-127.66"/>
<text text-anchor="middle" x="915.5" y="-124" font-family="Helvetica,sans-Serif" font-size="10.00">processa inimigos</text>
</g>
<!-- AI&#45;&gt;Rules -->
<g id="edge6" class="edge">
<title>AI&#45;&gt;Rules</title>
<path fill="none" stroke="#45556a" d="M979.94,-136.55C973.36,-137.15 966.46,-137.69 960,-138 920.49,-139.91 910.49,-140.28 871,-138 755.31,-131.32 725.94,-129.11 612,-108 608.04,-107.27 603.96,-106.42 599.87,-105.5"/>
<polygon fill="#45556a" stroke="#45556a" points="600.47,-102.76 592.04,-103.67 599.19,-108.22 600.47,-102.76"/>
<text text-anchor="middle" x="785.5" y="-139" font-family="Helvetica,sans-Serif" font-size="10.00">move/ataca</text>
</g>
<!-- Render&#45;&gt;Jog -->
<g id="edge8" class="edge">
<title>Render&#45;&gt;Jog</title>
<path fill="none" stroke="#45556a" d="M719.83,-12.41C673.55,-8.89 609.73,-5 553.5,-5 165.5,-5 165.5,-5 165.5,-5 131.44,-5 93.24,-12.15 66.1,-18.48"/>
<polygon fill="#45556a" stroke="#45556a" points="65.18,-15.82 58.05,-20.41 66.48,-21.26 65.18,-15.82"/>
<text text-anchor="middle" x="364" y="-8" font-family="Helvetica,sans-Serif" font-size="10.00">desenha UI</text>
</g>
</g>
</svg>
