<?xml version="1.0" encoding="UTF-8" standalone="no"?>
<!DOCTYPE svg PUBLIC "-//W3C//DTD SVG 1.1//EN"
 "http://www.w3.org/Graphics/SVG/1.1/DTD/svg11.dtd">
<!-- Generated by graphviz version 2.42.4 (0)
 -->
<!-- Title: G Pages: 1 -->
<svg width="1276pt" height="910pt"
 viewBox="0.00 0.00 510.50 364.00" xmlns="http://www.w3.org/2000/svg" xmlns:xlink="http://www.w3.org/1999/xlink">
<g id="graph0" class="graph" transform="scale(2.5 2.5) rotate(0) translate(4 360)">
<title>G</title>
<!-- RogueEngine -->
<g id="node1" class="node">
<title>RogueEngine</title>
<polygon fill="#eaf7ea" stroke="#2f3a4a" points="67.5,-279.5 67.5,-355.5 208.5,-355.5 208.5,-279.5 67.5,-279.5"/>
<text text-anchor="middle" x="138" y="-342.7" font-family="Helvetica,sans-Serif" font-size="11.00">RogueEngine</text>
<polyline fill="none" stroke="#2f3a4a" points="67.5,-335.5 208.5,-335.5 "/>
<text text-anchor="start" x="75.5" y="-322.7" font-family="Helvetica,sans-Serif" font-size="11.00">+ Run()</text>
<text text-anchor="start" x="75.5" y="-310.7" font-family="Helvetica,sans-Serif" font-size="11.00">+ Update()</text>
<text text-anchor="start" x="75.5" y="-298.7" font-family="Helvetica,sans-Serif" font-size="11.00">+ Draw()</text>
<text text-anchor="start" x="75.5" y="-286.7" font-family="Helvetica,sans-Serif" font-size="11.00">+ LoadProject(project)</text>
</g>
<!-- World -->
<g id="node2" class="node">
<title>World</title>
<polygon fill="#f7f9fc" stroke="#2f3a4a" points="0,-194.5 0,-230.5 54,-230.5 54,-194.5 0,-194.5"/>
<text text-anchor="middle" x="27" y="-213.7" font-family="Helvetica,sans-Serif" font-size="11.00">World</text>
<polyline fill="none" stroke="#2f3a4a" points="0,-202.5 54,-202.5 "/>
</g>
<!-- RogueEngine&#45;&gt;World -->
<g id="edge1" class="edge">
<title>RogueEngine&#45;&gt;World</title>
<path fill="none" stroke="#45556a" d="M97.93,-279.31C82.42,-264.92 65.16,-248.91 51.55,-236.29"/>
<polygon fill="#45556a" stroke="#45556a" points="53.35,-234.13 45.58,-230.74 49.54,-238.23 53.35,-234.13"/>
</g>
<!-- Turn -->
<g id="node10" class="node">
<title>Turn</title>
<polygon fill="#f7f9fc" stroke="#2f3a4a" points="81.5,-186.5 81.5,-238.5 194.5,-238.5 194.5,-186.5 81.5,-186.5"/>
<text text-anchor="middle" x="138" y="-225.7" font-family="Helvetica,sans-Serif" font-size="11.00">TurnManager</text>
<polyline fill="none" stroke="#2f3a4a" points="81.5,-218.5 194.5,-218.5 "/>
<text text-anchor="start" x="89.5" y="-205.7" font-family="Helvetica,sans-Serif" font-size="11.00">+ NextActor()</text>
<text text-anchor="start" x="89.5" y="-193.7" font-family="Helvetica,sans-Serif" font-size="11.00">+ ConsumeTurn()</text>
</g>
<!-- RogueEngine&#45;&gt;Turn -->
<g id="edge2" class="edge">
<title>RogueEngine&#45;&gt;Turn</title>
<path fill="none" stroke="#45556a" d="M138,-279.31C138,-268.68 138,-257.15 138,-246.76"/>
<polygon fill="#45556a" stroke="#45556a" points="140.8,-246.71 138,-238.71 135.2,-246.71 140.8,-246.71"/>
</g>
<!-- Renderer -->
<g id="node11" class="node">
<title>Renderer</title>
<polygon fill="#f3e8ff" stroke="#2f3a4a" points="221.5,-186.5 221.5,-238.5 330.5,-238.5 330.5,-186.5 221.5,-186.5"/>
<text text-anchor="middle" x="276" y="-225.7" font-family="Helvetica,sans-Serif" font-size="11.00">IRenderer</text>
<polyline fill="none" stroke="#2f3a4a" points="221.5,-218.5 330.5,-218.5 "/>
<text text-anchor="start" x="229.5" y="-205.7" font-family="Helvetica,sans-Serif" font-size="11.00">interface</text>
<text text-anchor="start" x="229.5" y="-193.7" font-family="Helvetica,sans-Serif" font-size="11.00">+ Render(World)</text>
</g>
<!-- RogueEngine&#45;&gt;Renderer -->
<g id="edge3" class="edge">
<title>RogueEngine&#45;&gt;Renderer</title>
<path fill="none" stroke="#45556a" d="M187.82,-279.31C203.49,-267.62 220.59,-254.86 235.52,-243.71"/>
<polygon fill="#45556a" stroke="#45556a" points="237.48,-245.74 242.22,-238.71 234.13,-241.25 237.48,-245.74"/>
</g>
<!-- Entity -->
<g id="node3" class="node">
<title>Entity</title>
<polygon fill="#f7f9fc" stroke="#2f3a4a" points="0,-95.5 0,-131.5 54,-131.5 54,-95.5 0,-95.5"/>
<text text-anchor="middle" x="27" y="-114.7" font-family="Helvetica,sans-Serif" font-size="11.00">Entity</text>
<polyline fill="none" stroke="#2f3a4a" points="0,-103.5 54,-103.5 "/>
</g>
<!-- World&#45;&gt;Entity -->
<g id="edge4" class="edge">
<title>World&#45;&gt;Entity</title>
<path fill="none" stroke="#45556a" d="M27,-194.16C27,-179.12 27,-157.16 27,-140.1"/>
<polygon fill="#45556a" stroke="#45556a" points="29.8,-139.69 27,-131.69 24.2,-139.69 29.8,-139.69"/>
</g>
<!-- Component -->
<g id="node4" class="node">
<title>Component</title>
<polygon fill="#f7f9fc" stroke="#2f3a4a" points="96,-0.5 96,-40.5 188,-40.5 188,-0.5 96,-0.5"/>
<text text-anchor="middle" x="142" y="-27.7" font-family="Helvetica,sans-Serif" font-size="11.00">Component</text>
<polyline fill="none" stroke="#2f3a4a" points="96,-20.5 188,-20.5 "/>
<text text-anchor="start" x="104" y="-7.7" font-family="Helvetica,sans-Serif" font-size="11.00">abstract base</text>
</g>
<!-- Entity&#45;&gt;Component -->
<g id="edge5" class="edge">
<title>Entity&#45;&gt;Component</title>
<path fill="none" stroke="#45556a" d="M48.63,-95.38C66.28,-81.41 91.45,-61.5 111.21,-45.87"/>
<polygon fill="#45556a" stroke="#45556a" points="113.14,-47.9 117.68,-40.74 109.67,-43.51 113.14,-47.9"/>
</g>
<!-- Position -->
<g id="node5" class="node">
<title>Position</title>
<polygon fill="#f7f9fc" stroke="#2f3a4a" points="81,-87.5 81,-139.5 203,-139.5 203,-87.5 81,-87.5"/>
<text text-anchor="middle" x="142" y="-126.7" font-family="Helvetica,sans-Serif" font-size="11.00">PositionComponent</text>
<polyline fill="none" stroke="#2f3a4a" points="81,-119.5 203,-119.5 "/>
<text text-anchor="start" x="89" y="-106.7" font-family="Helvetica,sans-Serif" font-size="11.00">+ int X</text>
<text text-anchor="start" x="89" y="-94.7" font-family="Helvetica,sans-Serif" font-size="11.00">+ int Y</text>
</g>
<!-- Position&#45;&gt;Component -->
<g id="edge6" class="edge">
<title>Position&#45;&gt;Component</title>
<path fill="none" stroke="#45556a" d="M142,-87.15C142,-75.19 142,-60.89 142,-48.7"/>
<polygon fill="none" stroke="#45556a" points="144.8,-48.65 142,-40.65 139.2,-48.65 144.8,-48.65"/>
</g>
<!-- Renderable -->
<g id="node6" class="node">
<title>Renderable</title>
<polygon fill="#f7f9fc" stroke="#2f3a4a" points="230,-81.5 230,-145.5 372,-145.5 372,-81.5 230,-81.5"/>
<text text-anchor="middle" x="301" y="-132.7" font-family="Helvetica,sans-Serif" font-size="11.00">RenderableComponent</text>
<polyline fill="none" stroke="#2f3a4a" points="230,-125.5 372,-125.5 "/>
<text text-anchor="start" x="238" y="-112.7" font-family="Helvetica,sans-Serif" font-size="11.00">+ int Glyph</text>
<text text-anchor="start" x="238" y="-100.7" font-family="Helvetica,sans-Serif" font-size="11.00">+ Color Foreground</text>
<text text-anchor="start" x="238" y="-88.7" font-family="Helvetica,sans-Serif" font-size="11.00">+ Color Background</text>
</g>
<!-- Renderable&#45;&gt;Component -->
<g id="edge7" class="edge">
<title>Renderable&#45;&gt;Component</title>
<path fill="none" stroke="#45556a" d="M246.73,-81.44C225.73,-69.42 202.12,-55.91 182.64,-44.76"/>
<polygon fill="none" stroke="#45556a" points="184,-42.31 175.66,-40.77 181.22,-47.17 184,-42.31"/>
</g>
<!-- System -->
<g id="node7" class="node">
<title>System</title>
<polygon fill="#f7f9fc" stroke="#2f3a4a" points="378,-186.5 378,-238.5 488,-238.5 488,-186.5 378,-186.5"/>
<text text-anchor="middle" x="433" y="-225.7" font-family="Helvetica,sans-Serif" font-size="11.00">SystemBase</text>
<polyline fill="none" stroke="#2f3a4a" points="378,-218.5 488,-218.5 "/>
<text text-anchor="start" x="386" y="-205.7" font-family="Helvetica,sans-Serif" font-size="11.00">abstract base</text>
<text text-anchor="start" x="386" y="-193.7" font-family="Helvetica,sans-Serif" font-size="11.00">+ Update(World)</text>
</g>
<!-- Movement -->
<g id="node8" class="node">
<title>Movement</title>
<polygon fill="#f7f9fc" stroke="#2f3a4a" points="235.5,-297.5 235.5,-337.5 374.5,-337.5 374.5,-297.5 235.5,-297.5"/>
<text text-anchor="middle" x="305" y="-324.7" font-family="Helvetica,sans-Serif" font-size="11.00">MovementSystem</text>
<polyline fill="none" stroke="#2f3a4a" points="235.5,-317.5 374.5,-317.5 "/>
<text text-anchor="start" x="243.5" y="-304.7" font-family="Helvetica,sans-Serif" font-size="11.00">+ TryMove(entity, dir)</text>
</g>
<!-- Movement&#45;&gt;System -->
<g id="edge8" class="edge">
<title>Movement&#45;&gt;System</title>
<path fill="none" stroke="#45556a" d="M328.78,-297.37C347.38,-282.39 373.62,-261.28 395.11,-243.99"/>
<polygon fill="none" stroke="#45556a" points="397.14,-245.95 401.62,-238.75 393.63,-241.59 397.14,-245.95"/>
</g>
<!-- Combat -->
<g id="node9" class="node">
<title>Combat</title>
<polygon fill="#f7f9fc" stroke="#2f3a4a" points="401.5,-297.5 401.5,-337.5 502.5,-337.5 502.5,-297.5 401.5,-297.5"/>
<text text-anchor="middle" x="452" y="-324.7" font-family="Helvetica,sans-Serif" font-size="11.00">CombatSystem</text>
<polyline fill="none" stroke="#2f3a4a" points="401.5,-317.5 502.5,-317.5 "/>
<text text-anchor="start" x="409.5" y="-304.7" font-family="Helvetica,sans-Serif" font-size="11.00">+ Attack(a,b)</text>
</g>
<!-- Combat&#45;&gt;System -->
<g id="edge9" class="edge">
<title>Combat&#45;&gt;System</title>
<path fill="none" stroke="#45556a" d="M448.43,-297.13C445.8,-282.9 442.18,-263.24 439.1,-246.55"/>
<polygon fill="none" stroke="#45556a" points="441.84,-245.99 437.64,-238.63 436.33,-247.01 441.84,-245.99"/>
</g>
</g>
</svg>
