<?xml version="1.0" encoding="UTF-8" standalone="no"?>
<!DOCTYPE svg PUBLIC "-//W3C//DTD SVG 1.1//EN"
 "http://www.w3.org/Graphics/SVG/1.1/DTD/svg11.dtd">
<!-- Generated by graphviz version 2.42.4 (0)
 -->
<!-- Title: G Pages: 1 -->
<svg width="2666pt" height="268pt"
 viewBox="0.00 0.00 1066.54 107.00" xmlns="http://www.w3.org/2000/svg" xmlns:xlink="http://www.w3.org/1999/xlink">
<g id="graph0" class="graph" transform="scale(2.5 2.5) rotate(0) translate(4 103)">
<title>G</title>
<!-- A -->
<g id="node1" class="node">
<title>A</title>
<path fill="#fff7e6" stroke="#2f3a4a" d="M68,-67C68,-67 12,-67 12,-67 6,-67 0,-61 0,-55 0,-55 0,-43 0,-43 0,-37 6,-31 12,-31 12,-31 68,-31 68,-31 74,-31 80,-37 80,-43 80,-43 80,-55 80,-55 80,-61 74,-67 68,-67"/>
<text text-anchor="middle" x="40" y="-46.2" font-family="Helvetica,sans-Serif" font-size="11.00">Graph JSON</text>
</g>
<!-- B -->
<g id="node2" class="node">
<title>B</title>
<path fill="#f7f9fc" stroke="#2f3a4a" d="M217,-67C217,-67 133,-67 133,-67 127,-67 121,-61 121,-55 121,-55 121,-43 121,-43 121,-37 127,-31 133,-31 133,-31 217,-31 217,-31 223,-31 229,-37 229,-43 229,-43 229,-55 229,-55 229,-61 223,-67 217,-67"/>
<text text-anchor="middle" x="175" y="-46.2" font-family="Helvetica,sans-Serif" font-size="11.00">Validador de nos</text>
</g>
<!-- A&#45;&gt;B -->
<g id="edge1" class="edge">
<title>A&#45;&gt;B</title>
<path fill="none" stroke="#45556a" d="M80.19,-49C90.42,-49 101.7,-49 112.78,-49"/>
<polygon fill="#45556a" stroke="#45556a" points="112.8,-51.8 120.8,-49 112.8,-46.2 112.8,-51.8"/>
</g>
<!-- H -->
<g id="node3" class="node">
<title>H</title>
<path fill="#f5f0ff" stroke="#2f3a4a" d="M297.42,-61.87C297.42,-61.87 281.08,-54.13 281.08,-54.13 275.65,-51.57 275.65,-46.43 281.08,-43.87 281.08,-43.87 297.42,-36.13 297.42,-36.13 302.85,-33.57 313.69,-33.57 319.12,-36.13 319.12,-36.13 335.46,-43.87 335.46,-43.87 340.88,-46.43 340.88,-51.57 335.46,-54.13 335.46,-54.13 319.12,-61.87 319.12,-61.87 313.69,-64.43 302.85,-64.43 297.42,-61.87"/>
<text text-anchor="middle" x="308.27" y="-46.2" font-family="Helvetica,sans-Serif" font-size="11.00">Erro?</text>
</g>
<!-- B&#45;&gt;H -->
<g id="edge2" class="edge">
<title>B&#45;&gt;H</title>
<path fill="none" stroke="#45556a" d="M229.01,-49C239.91,-49 251.28,-49 261.87,-49"/>
<polygon fill="#45556a" stroke="#45556a" points="262.18,-51.8 270.18,-49 262.18,-46.2 262.18,-51.8"/>
</g>
<!-- I -->
<g id="node4" class="node">
<title>I</title>
<path fill="#fdefef" stroke="#2f3a4a" d="M523.54,-99C523.54,-99 417.54,-99 417.54,-99 411.54,-99 405.54,-93 405.54,-87 405.54,-87 405.54,-75 405.54,-75 405.54,-69 411.54,-63 417.54,-63 417.54,-63 523.54,-63 523.54,-63 529.54,-63 535.54,-69 535.54,-75 535.54,-75 535.54,-87 535.54,-87 535.54,-93 529.54,-99 523.54,-99"/>
<text text-anchor="middle" x="470.54" y="-78.2" font-family="Helvetica,sans-Serif" font-size="11.00">Mensagem no Editor</text>
</g>
<!-- H&#45;&gt;I -->
<g id="edge3" class="edge">
<title>H&#45;&gt;I</title>
<path fill="none" stroke="#45556a" d="M335.38,-54.21C352.28,-57.59 375.19,-62.16 397.29,-66.58"/>
<polygon fill="#45556a" stroke="#45556a" points="396.99,-69.37 405.39,-68.19 398.09,-63.88 396.99,-69.37"/>
<text text-anchor="middle" x="376.04" y="-67" font-family="Helvetica,sans-Serif" font-size="10.00">sim</text>
</g>
<!-- C -->
<g id="node5" class="node">
<title>C</title>
<path fill="#f7f9fc" stroke="#2f3a4a" d="M499.04,-36C499.04,-36 442.04,-36 442.04,-36 436.04,-36 430.04,-30 430.04,-24 430.04,-24 430.04,-12 430.04,-12 430.04,-6 436.04,0 442.04,0 442.04,0 499.04,0 499.04,0 505.04,0 511.04,-6 511.04,-12 511.04,-12 511.04,-24 511.04,-24 511.04,-30 505.04,-36 499.04,-36"/>
<text text-anchor="middle" x="470.54" y="-15.2" font-family="Helvetica,sans-Serif" font-size="11.00">Gerador C#</text>
</g>
<!-- H&#45;&gt;C -->
<g id="edge4" class="edge">
<title>H&#45;&gt;C</title>
<path fill="none" stroke="#45556a" d="M334.9,-43.49C344.78,-41.41 356.17,-39.04 366.54,-37 384.48,-33.47 404.21,-29.78 421.57,-26.6"/>
<polygon fill="#45556a" stroke="#45556a" points="422.51,-29.28 429.88,-25.09 421.5,-23.77 422.51,-29.28"/>
<text text-anchor="middle" x="376.04" y="-40" font-family="Helvetica,sans-Serif" font-size="10.00">nao</text>
</g>
<!-- D -->
<g id="node6" class="node">
<title>D</title>
<path fill="#fff7e6" stroke="#2f3a4a" d="M656.54,-36C656.54,-36 588.54,-36 588.54,-36 582.54,-36 576.54,-30 576.54,-24 576.54,-24 576.54,-12 576.54,-12 576.54,-6 582.54,0 588.54,0 588.54,0 656.54,0 656.54,0 662.54,0 668.54,-6 668.54,-12 668.54,-12 668.54,-24 668.54,-24 668.54,-30 662.54,-36 656.54,-36"/>
<text text-anchor="middle" x="622.54" y="-15.2" font-family="Helvetica,sans-Serif" font-size="11.00">.generated.cs</text>
</g>
<!-- C&#45;&gt;D -->
<g id="edge5" class="edge">
<title>C&#45;&gt;D</title>
<path fill="none" stroke="#45556a" d="M511.34,-18C528.81,-18 549.56,-18 568.33,-18"/>
<polygon fill="#45556a" stroke="#45556a" points="568.51,-20.8 576.51,-18 568.51,-15.2 568.51,-20.8"/>
</g>
<!-- E -->
<g id="node7" class="node">
<title>E</title>
<path fill="#f7f9fc" stroke="#2f3a4a" d="M789.54,-36C789.54,-36 721.54,-36 721.54,-36 715.54,-36 709.54,-30 709.54,-24 709.54,-24 709.54,-12 709.54,-12 709.54,-6 715.54,0 721.54,0 721.54,0 789.54,0 789.54,0 795.54,0 801.54,-6 801.54,-12 801.54,-12 801.54,-24 801.54,-24 801.54,-30 795.54,-36 789.54,-36"/>
<text text-anchor="middle" x="755.54" y="-15.2" font-family="Helvetica,sans-Serif" font-size="11.00">Roslyn / Build</text>
</g>
<!-- D&#45;&gt;E -->
<g id="edge6" class="edge">
<title>D&#45;&gt;E</title>
<path fill="none" stroke="#45556a" d="M668.62,-18C679.12,-18 690.39,-18 701.21,-18"/>
<polygon fill="#45556a" stroke="#45556a" points="701.37,-20.8 709.37,-18 701.37,-15.2 701.37,-20.8"/>
</g>
<!-- F -->
<g id="node8" class="node">
<title>F</title>
<path fill="#eaf7ea" stroke="#2f3a4a" d="M895.54,-36C895.54,-36 854.54,-36 854.54,-36 848.54,-36 842.54,-30 842.54,-24 842.54,-24 842.54,-12 842.54,-12 842.54,-6 848.54,0 854.54,0 854.54,0 895.54,0 895.54,0 901.54,0 907.54,-6 907.54,-12 907.54,-12 907.54,-24 907.54,-24 907.54,-30 901.54,-36 895.54,-36"/>
<text text-anchor="middle" x="875.04" y="-15.2" font-family="Helvetica,sans-Serif" font-size="11.00">Game.dll</text>
</g>
<!-- E&#45;&gt;F -->
<g id="edge7" class="edge">
<title>E&#45;&gt;F</title>
<path fill="none" stroke="#45556a" d="M801.63,-18C812.35,-18 823.72,-18 834.19,-18"/>
<polygon fill="#45556a" stroke="#45556a" points="834.37,-20.8 842.37,-18 834.37,-15.2 834.37,-20.8"/>
</g>
<!-- G -->
<g id="node9" class="node">
<title>G</title>
<path fill="#eaf7ea" stroke="#2f3a4a" d="M1046.54,-36C1046.54,-36 960.54,-36 960.54,-36 954.54,-36 948.54,-30 948.54,-24 948.54,-24 948.54,-12 948.54,-12 948.54,-6 954.54,0 960.54,0 960.54,0 1046.54,0 1046.54,0 1052.54,0 1058.54,-6 1058.54,-12 1058.54,-12 1058.54,-24 1058.54,-24 1058.54,-30 1052.54,-36 1046.54,-36"/>
<text text-anchor="middle" x="1003.54" y="-21.2" font-family="Helvetica,sans-Serif" font-size="11.00">Runtime executa</text>
<text text-anchor="middle" x="1003.54" y="-9.2" font-family="Helvetica,sans-Serif" font-size="11.00">comportamento</text>
</g>
<!-- F&#45;&gt;G -->
<g id="edge8" class="edge">
<title>F&#45;&gt;G</title>
<path fill="none" stroke="#45556a" d="M907.63,-18C917.53,-18 928.81,-18 940.06,-18"/>
<polygon fill="#45556a" stroke="#45556a" points="940.23,-20.8 948.23,-18 940.23,-15.2 940.23,-20.8"/>
</g>
</g>
</svg>
