<?xml version="1.0" encoding="UTF-8" standalone="no"?>
<!DOCTYPE svg PUBLIC "-//W3C//DTD SVG 1.1//EN"
 "http://www.w3.org/Graphics/SVG/1.1/DTD/svg11.dtd">
<!-- Generated by graphviz version 2.42.4 (0)
 -->
<!-- Title: G Pages: 1 -->
<svg width="2373pt" height="852pt"
 viewBox="0.00 0.00 949.25 340.78" xmlns="http://www.w3.org/2000/svg" xmlns:xlink="http://www.w3.org/1999/xlink">
<g id="graph0" class="graph" transform="scale(2.5 2.5) rotate(0) translate(4 336.78)">
<title>G</title>
<!-- Start -->
<g id="node1" class="node">
<title>Start</title>
<ellipse fill="#2f3a4a" stroke="#2f3a4a" cx="31.82" cy="-96.78" rx="31.64" ry="31.64"/>
<text text-anchor="middle" x="31.82" y="-93.98" font-family="Helvetica,sans-Serif" font-size="11.00" fill="white">inicio</text>
</g>
<!-- Boot -->
<g id="node2" class="node">
<title>Boot</title>
<ellipse fill="#f7f9fc" stroke="#2f3a4a" cx="130.64" cy="-96.78" rx="27" ry="18"/>
<text text-anchor="middle" x="130.64" y="-93.98" font-family="Helvetica,sans-Serif" font-size="11.00">Boot</text>
</g>
<!-- Start&#45;&gt;Boot -->
<g id="edge1" class="edge">
<title>Start&#45;&gt;Boot</title>
<path fill="none" stroke="#45556a" d="M63.72,-96.78C73.85,-96.78 85.16,-96.78 95.52,-96.78"/>
<polygon fill="#45556a" stroke="#45556a" points="95.58,-99.58 103.58,-96.78 95.58,-93.98 95.58,-99.58"/>
</g>
<!-- Load -->
<g id="node3" class="node">
<title>Load</title>
<ellipse fill="#f7f9fc" stroke="#2f3a4a" cx="246.35" cy="-96.78" rx="48.92" ry="18"/>
<text text-anchor="middle" x="246.35" y="-93.98" font-family="Helvetica,sans-Serif" font-size="11.00">LoadProject</text>
</g>
<!-- Boot&#45;&gt;Load -->
<g id="edge2" class="edge">
<title>Boot&#45;&gt;Load</title>
<path fill="none" stroke="#45556a" d="M157.73,-96.78C167.22,-96.78 178.36,-96.78 189.45,-96.78"/>
<polygon fill="#45556a" stroke="#45556a" points="189.49,-99.58 197.49,-96.78 189.49,-93.98 189.49,-99.58"/>
</g>
<!-- Menu -->
<g id="node4" class="node">
<title>Menu</title>
<ellipse fill="#f7f9fc" stroke="#2f3a4a" cx="378.95" cy="-96.78" rx="43.8" ry="18"/>
<text text-anchor="middle" x="378.95" y="-93.98" font-family="Helvetica,sans-Serif" font-size="11.00">MainMenu</text>
</g>
<!-- Load&#45;&gt;Menu -->
<g id="edge3" class="edge">
<title>Load&#45;&gt;Menu</title>
<path fill="none" stroke="#45556a" d="M295.24,-96.78C305.46,-96.78 316.3,-96.78 326.65,-96.78"/>
<polygon fill="#45556a" stroke="#45556a" points="326.82,-99.58 334.82,-96.78 326.82,-93.98 326.82,-99.58"/>
</g>
<!-- Playing -->
<g id="node5" class="node">
<title>Playing</title>
<ellipse fill="#f7f9fc" stroke="#2f3a4a" cx="496.53" cy="-159.78" rx="33.85" ry="18"/>
<text text-anchor="middle" x="496.53" y="-156.98" font-family="Helvetica,sans-Serif" font-size="11.00">Playing</text>
</g>
<!-- Menu&#45;&gt;Playing -->
<g id="edge4" class="edge">
<title>Menu&#45;&gt;Playing</title>
<path fill="none" stroke="#45556a" d="M406.18,-111.07C423.54,-120.54 446.4,-133 464.64,-142.94"/>
<polygon fill="#45556a" stroke="#45556a" points="463.79,-145.66 472.15,-147.03 466.47,-140.75 463.79,-145.66"/>
</g>
<!-- Exit -->
<g id="node12" class="node">
<title>Exit</title>
<ellipse fill="#f7f9fc" stroke="#2f3a4a" cx="496.53" cy="-31.78" rx="27" ry="18"/>
<text text-anchor="middle" x="496.53" y="-28.98" font-family="Helvetica,sans-Serif" font-size="11.00">Exit</text>
</g>
<!-- Menu&#45;&gt;Exit -->
<g id="edge15" class="edge">
<title>Menu&#45;&gt;Exit</title>
<path fill="none" stroke="#45556a" d="M405.6,-82.35C424.16,-71.92 449.19,-57.84 468.13,-47.19"/>
<polygon fill="#45556a" stroke="#45556a" points="469.72,-49.5 475.32,-43.14 466.98,-44.62 469.72,-49.5"/>
</g>
<!-- PlayerTurn -->
<g id="node6" class="node">
<title>PlayerTurn</title>
<ellipse fill="#f7f9fc" stroke="#2f3a4a" cx="615.9" cy="-285.78" rx="44.5" ry="18"/>
<text text-anchor="middle" x="615.9" y="-282.98" font-family="Helvetica,sans-Serif" font-size="11.00">PlayerTurn</text>
</g>
<!-- Playing&#45;&gt;PlayerTurn -->
<g id="edge5" class="edge">
<title>Playing&#45;&gt;PlayerTurn</title>
<path fill="none" stroke="#45556a" d="M508.21,-176.84C521.27,-196.91 544.81,-230.55 570.2,-254.78 574.24,-258.63 578.8,-262.36 583.42,-265.81"/>
<polygon fill="#45556a" stroke="#45556a" points="582.05,-268.28 590.18,-270.66 585.31,-263.73 582.05,-268.28"/>
</g>
<!-- Paused -->
<g id="node9" class="node">
<title>Paused</title>
<ellipse fill="#f7f9fc" stroke="#2f3a4a" cx="615.9" cy="-222.78" rx="33.85" ry="18"/>
<text text-anchor="middle" x="615.9" y="-219.98" font-family="Helvetica,sans-Serif" font-size="11.00">Paused</text>
</g>
<!-- Playing&#45;&gt;Paused -->
<g id="edge9" class="edge">
<title>Playing&#45;&gt;Paused</title>
<path fill="none" stroke="#45556a" d="M527.45,-167.21C547.48,-176.26 573.44,-190.43 591.86,-202.48"/>
<polygon fill="#45556a" stroke="#45556a" points="590.57,-204.99 598.77,-207.15 593.71,-200.35 590.57,-204.99"/>
</g>
<!-- Save -->
<g id="node10" class="node">
<title>Save</title>
<ellipse fill="#f7f9fc" stroke="#2f3a4a" cx="615.9" cy="-159.78" rx="45.9" ry="18"/>
<text text-anchor="middle" x="615.9" y="-156.98" font-family="Helvetica,sans-Serif" font-size="11.00">SaveGame</text>
</g>
<!-- Playing&#45;&gt;Save -->
<g id="edge11" class="edge">
<title>Playing&#45;&gt;Save</title>
<path fill="none" stroke="#45556a" d="M526.24,-151.26C538.84,-150.12 553.95,-149.77 568.1,-150.21"/>
<polygon fill="#45556a" stroke="#45556a" points="568.18,-153.01 576.29,-150.55 568.42,-147.42 568.18,-153.01"/>
</g>
<!-- GameOver -->
<g id="node11" class="node">
<title>GameOver</title>
<ellipse fill="#f7f9fc" stroke="#2f3a4a" cx="615.9" cy="-96.78" rx="45.9" ry="18"/>
<text text-anchor="middle" x="615.9" y="-93.98" font-family="Helvetica,sans-Serif" font-size="11.00">GameOver</text>
</g>
<!-- Playing&#45;&gt;GameOver -->
<g id="edge13" class="edge">
<title>Playing&#45;&gt;GameOver</title>
<path fill="none" stroke="#45556a" d="M521,-147.18C538.2,-137.95 561.81,-125.27 581.05,-114.95"/>
<polygon fill="#45556a" stroke="#45556a" points="582.47,-117.36 588.19,-111.11 579.82,-112.43 582.47,-117.36"/>
</g>
<!-- EnemyTurn -->
<g id="node7" class="node">
<title>EnemyTurn</title>
<ellipse fill="#f7f9fc" stroke="#2f3a4a" cx="747.91" cy="-314.78" rx="46.11" ry="18"/>
<text text-anchor="middle" x="747.91" y="-311.98" font-family="Helvetica,sans-Serif" font-size="11.00">EnemyTurn</text>
</g>
<!-- PlayerTurn&#45;&gt;EnemyTurn -->
<g id="edge6" class="edge">
<title>PlayerTurn&#45;&gt;EnemyTurn</title>
<path fill="none" stroke="#45556a" d="M655.21,-294.32C668.98,-297.39 684.7,-300.9 699.18,-304.13"/>
<polygon fill="#45556a" stroke="#45556a" points="698.66,-306.88 707.07,-305.89 699.88,-301.42 698.66,-306.88"/>
</g>
<!-- Render -->
<g id="node8" class="node">
<title>Render</title>
<ellipse fill="#f7f9fc" stroke="#2f3a4a" cx="887.73" cy="-284.78" rx="53.54" ry="18"/>
<text text-anchor="middle" x="887.73" y="-281.98" font-family="Helvetica,sans-Serif" font-size="11.00">RenderFrame</text>
</g>
<!-- EnemyTurn&#45;&gt;Render -->
<g id="edge7" class="edge">
<title>EnemyTurn&#45;&gt;Render</title>
<path fill="none" stroke="#45556a" d="M788.77,-306.1C802.86,-303.03 818.93,-299.54 833.92,-296.27"/>
<polygon fill="#45556a" stroke="#45556a" points="834.9,-298.93 842.12,-294.49 833.7,-293.45 834.9,-298.93"/>
</g>
<!-- Render&#45;&gt;PlayerTurn -->
<g id="edge8" class="edge">
<title>Render&#45;&gt;PlayerTurn</title>
<path fill="none" stroke="#45556a" d="M834.06,-284.01C797.02,-283.59 746.28,-283.25 701.6,-283.78 690.94,-283.9 679.52,-284.12 668.63,-284.36"/>
<polygon fill="#45556a" stroke="#45556a" points="668.36,-281.57 660.43,-284.55 668.49,-287.17 668.36,-281.57"/>
</g>
<!-- Paused&#45;&gt;Playing -->
<g id="edge10" class="edge">
<title>Paused&#45;&gt;Playing</title>
<path fill="none" stroke="#45556a" d="M584.42,-215.75C564.34,-206.77 538.47,-192.6 520.2,-180.44"/>
<polygon fill="#45556a" stroke="#45556a" points="521.53,-177.96 513.36,-175.72 518.35,-182.57 521.53,-177.96"/>
</g>
<!-- Save&#45;&gt;Playing -->
<g id="edge12" class="edge">
<title>Save&#45;&gt;Playing</title>
<path fill="none" stroke="#45556a" d="M577.25,-169.65C563.38,-170.51 547.69,-170.48 533.93,-169.57"/>
<polygon fill="#45556a" stroke="#45556a" points="533.84,-166.76 525.64,-168.89 533.38,-172.34 533.84,-166.76"/>
</g>
<!-- GameOver&#45;&gt;Menu -->
<g id="edge14" class="edge">
<title>GameOver&#45;&gt;Menu</title>
<path fill="none" stroke="#45556a" d="M570.08,-96.78C530.42,-96.78 472.57,-96.78 431.11,-96.78"/>
<polygon fill="#45556a" stroke="#45556a" points="431.05,-93.98 423.05,-96.78 431.05,-99.58 431.05,-93.98"/>
</g>
<!-- End -->
<g id="node13" class="node">
<title>End</title>
<ellipse fill="#2f3a4a" stroke="#2f3a4a" cx="615.9" cy="-25.78" rx="21.59" ry="21.59"/>
<ellipse fill="none" stroke="#2f3a4a" cx="615.9" cy="-25.78" rx="25.56" ry="25.56"/>
<text text-anchor="middle" x="615.9" y="-22.98" font-family="Helvetica,sans-Serif" font-size="11.00" fill="white">fim</text>
</g>
<!-- Exit&#45;&gt;End -->
<g id="edge16" class="edge">
<title>Exit&#45;&gt;End</title>
<path fill="none" stroke="#45556a" d="M523.58,-30.45C540.8,-29.57 563.51,-28.4 581.98,-27.46"/>
<polygon fill="#45556a" stroke="#45556a" points="582.29,-30.25 590.13,-27.04 582,-24.66 582.29,-30.25"/>
</g>
</g>
</svg>
