<?xml version="1.0" encoding="UTF-8" standalone="no"?>
<!DOCTYPE svg PUBLIC "-//W3C//DTD SVG 1.1//EN"
 "http://www.w3.org/Graphics/SVG/1.1/DTD/svg11.dtd">
<!-- Generated by graphviz version 2.42.4 (0)
 -->
<!-- Title: G Pages: 1 -->
<svg width="746pt" height="1600pt"
 viewBox="0.00 0.00 298.32 640.00" xmlns="http://www.w3.org/2000/svg" xmlns:xlink="http://www.w3.org/1999/xlink">
<g id="graph0" class="graph" transform="scale(2.5 2.5) rotate(0) translate(4 636)">
<title>G</title>
<!-- Dev -->
<g id="node1" class="node">
<title>Dev</title>
<polygon fill="#e8f1ff" stroke="#2f3a4a" points="99,-266 0,-266 0,-230 99,-230 99,-266"/>
<text text-anchor="middle" x="49.5" y="-245.2" font-family="Helvetica,sans-Serif" font-size="11.00">Desenvolvedor</text>
</g>
<!-- UC1 -->
<g id="node3" class="node">
<title>UC1</title>
<ellipse fill="#f7f9fc" stroke="#2f3a4a" cx="214.66" cy="-488" rx="51.93" ry="18"/>
<text text-anchor="middle" x="214.66" y="-485.2" font-family="Helvetica,sans-Serif" font-size="11.00">Criar projeto</text>
</g>
<!-- Dev&#45;&gt;UC1 -->
<g id="edge1" class="edge">
<title>Dev&#45;&gt;UC1</title>
<path fill="none" stroke="#45556a" d="M53.51,-266.12C60.96,-305.69 83.85,-400.71 139,-456 146.46,-463.48 155.95,-469.32 165.63,-473.84"/>
<polygon fill="#45556a" stroke="#45556a" points="164.6,-476.45 173.05,-477.05 166.82,-471.31 164.6,-476.45"/>
</g>
<!-- UC2 -->
<g id="node4" class="node">
<title>UC2</title>
<ellipse fill="#f7f9fc" stroke="#2f3a4a" cx="214.66" cy="-420" rx="75.82" ry="22.76"/>
<text text-anchor="middle" x="214.66" y="-423.2" font-family="Helvetica,sans-Serif" font-size="11.00">Editar entidades</text>
<text text-anchor="middle" x="214.66" y="-411.2" font-family="Helvetica,sans-Serif" font-size="11.00">e itens</text>
</g>
<!-- Dev&#45;&gt;UC2 -->
<g id="edge2" class="edge">
<title>Dev&#45;&gt;UC2</title>
<path fill="none" stroke="#45556a" d="M58.62,-266.37C71.89,-294.61 100.62,-348.98 139,-383 145.46,-388.73 152.98,-393.8 160.69,-398.21"/>
<polygon fill="#45556a" stroke="#45556a" points="159.45,-400.72 167.82,-402.07 162.12,-395.79 159.45,-400.72"/>
</g>
<!-- UC3 -->
<g id="node5" class="node">
<title>UC3</title>
<ellipse fill="#f7f9fc" stroke="#2f3a4a" cx="214.66" cy="-352" rx="49.82" ry="18"/>
<text text-anchor="middle" x="214.66" y="-349.2" font-family="Helvetica,sans-Serif" font-size="11.00">Criar mapas</text>
</g>
<!-- Dev&#45;&gt;UC3 -->
<g id="edge3" class="edge">
<title>Dev&#45;&gt;UC3</title>
<path fill="none" stroke="#45556a" d="M69.7,-266.28C86.87,-281.96 113.24,-304.42 139,-320 149.1,-326.11 160.57,-331.64 171.45,-336.32"/>
<polygon fill="#45556a" stroke="#45556a" points="170.39,-338.92 178.85,-339.43 172.55,-333.75 170.39,-338.92"/>
</g>
<!-- UC4 -->
<g id="node6" class="node">
<title>UC4</title>
<ellipse fill="#f7f9fc" stroke="#2f3a4a" cx="214.66" cy="-284" rx="52.15" ry="22.76"/>
<text text-anchor="middle" x="214.66" y="-287.2" font-family="Helvetica,sans-Serif" font-size="11.00">Programar</text>
<text text-anchor="middle" x="214.66" y="-275.2" font-family="Helvetica,sans-Serif" font-size="11.00">scripts C#</text>
</g>
<!-- Dev&#45;&gt;UC4 -->
<g id="edge4" class="edge">
<title>Dev&#45;&gt;UC4</title>
<path fill="none" stroke="#45556a" d="M99.01,-258.7C118.08,-262.91 140.06,-267.76 159.63,-272.08"/>
<polygon fill="#45556a" stroke="#45556a" points="159.16,-274.84 167.57,-273.83 160.37,-269.37 159.16,-274.84"/>
</g>
<!-- UC5 -->
<g id="node7" class="node">
<title>UC5</title>
<ellipse fill="#f7f9fc" stroke="#2f3a4a" cx="214.66" cy="-212" rx="55.72" ry="22.76"/>
<text text-anchor="middle" x="214.66" y="-215.2" font-family="Helvetica,sans-Serif" font-size="11.00">Criar visual</text>
<text text-anchor="middle" x="214.66" y="-203.2" font-family="Helvetica,sans-Serif" font-size="11.00">scripts</text>
</g>
<!-- Dev&#45;&gt;UC5 -->
<g id="edge5" class="edge">
<title>Dev&#45;&gt;UC5</title>
<path fill="none" stroke="#45556a" d="M99.01,-237.3C117.34,-233.25 138.35,-228.62 157.34,-224.43"/>
<polygon fill="#45556a" stroke="#45556a" points="158.13,-227.12 165.34,-222.66 156.92,-221.65 158.13,-227.12"/>
</g>
<!-- UC6 -->
<g id="node8" class="node">
<title>UC6</title>
<ellipse fill="#f7f9fc" stroke="#2f3a4a" cx="214.66" cy="-144" rx="46.11" ry="18"/>
<text text-anchor="middle" x="214.66" y="-141.2" font-family="Helvetica,sans-Serif" font-size="11.00">Testar jogo</text>
</g>
<!-- Dev&#45;&gt;UC6 -->
<g id="edge6" class="edge">
<title>Dev&#45;&gt;UC6</title>
<path fill="none" stroke="#45556a" d="M69.7,-229.72C86.87,-214.04 113.24,-191.58 139,-176 149.39,-169.71 161.24,-164.04 172.39,-159.27"/>
<polygon fill="#45556a" stroke="#45556a" points="173.66,-161.77 179.98,-156.12 171.51,-156.6 173.66,-161.77"/>
</g>
<!-- UC7 -->
<g id="node9" class="node">
<title>UC7</title>
<ellipse fill="#f7f9fc" stroke="#2f3a4a" cx="214.66" cy="-81" rx="53.54" ry="18"/>
<text text-anchor="middle" x="214.66" y="-78.2" font-family="Helvetica,sans-Serif" font-size="11.00">Exportar EXE</text>
</g>
<!-- Dev&#45;&gt;UC7 -->
<g id="edge7" class="edge">
<title>Dev&#45;&gt;UC7</title>
<path fill="none" stroke="#45556a" d="M58.11,-229.64C70.86,-200.9 99.15,-145.14 139,-112 146.92,-105.41 156.43,-100.06 165.98,-95.77"/>
<polygon fill="#45556a" stroke="#45556a" points="167.32,-98.24 173.61,-92.55 165.15,-93.08 167.32,-98.24"/>
</g>
<!-- UC8 -->
<g id="node10" class="node">
<title>UC8</title>
<ellipse fill="#f7f9fc" stroke="#2f3a4a" cx="214.66" cy="-18" rx="63.98" ry="18"/>
<text text-anchor="middle" x="214.66" y="-15.2" font-family="Helvetica,sans-Serif" font-size="11.00">Gerar instalador</text>
</g>
<!-- Dev&#45;&gt;UC8 -->
<g id="edge8" class="edge">
<title>Dev&#45;&gt;UC8</title>
<path fill="none" stroke="#45556a" d="M53.88,-229.74C61.89,-191.27 85.54,-101.14 139,-49 145.23,-42.92 152.82,-37.97 160.75,-33.96"/>
<polygon fill="#45556a" stroke="#45556a" points="162.04,-36.45 168.1,-30.53 159.67,-31.37 162.04,-36.45"/>
</g>
<!-- Player -->
<g id="node2" class="node">
<title>Player</title>
<polygon fill="#e8f1ff" stroke="#2f3a4a" points="92,-600 7,-600 7,-564 92,-564 92,-600"/>
<text text-anchor="middle" x="49.5" y="-579.2" font-family="Helvetica,sans-Serif" font-size="11.00">Jogador final</text>
</g>
<!-- UC9 -->
<g id="node11" class="node">
<title>UC9</title>
<ellipse fill="#f7f9fc" stroke="#2f3a4a" cx="214.66" cy="-614" rx="55.15" ry="18"/>
<text text-anchor="middle" x="214.66" y="-611.2" font-family="Helvetica,sans-Serif" font-size="11.00">Executar jogo</text>
</g>
<!-- Player&#45;&gt;UC9 -->
<g id="edge9" class="edge">
<title>Player&#45;&gt;UC9</title>
<path fill="none" stroke="#45556a" d="M92.09,-590.16C112.44,-594.15 137.2,-599 159.05,-603.29"/>
<polygon fill="#45556a" stroke="#45556a" points="158.57,-606.05 166.96,-604.84 159.65,-600.55 158.57,-606.05"/>
</g>
<!-- UC10 -->
<g id="node12" class="node">
<title>UC10</title>
<ellipse fill="#f7f9fc" stroke="#2f3a4a" cx="214.66" cy="-551" rx="65.59" ry="18"/>
<text text-anchor="middle" x="214.66" y="-548.2" font-family="Helvetica,sans-Serif" font-size="11.00">Salvar / carregar</text>
</g>
<!-- Player&#45;&gt;UC10 -->
<g id="edge10" class="edge">
<title>Player&#45;&gt;UC10</title>
<path fill="none" stroke="#45556a" d="M92.09,-574.1C110.43,-570.61 132.35,-566.45 152.49,-562.62"/>
<polygon fill="#45556a" stroke="#45556a" points="153.07,-565.36 160.41,-561.12 152.03,-559.86 153.07,-565.36"/>
</g>
</g>
</svg>
